<svg width="285" height="285" viewBox="0 0 285 285" fill="none" xmlns="http://www.w3.org/2000/svg">
<g opacity="0.9" clip-path="url(#clip0_4005_48)">
<path d="M94.9141 67.1965H179.086C183.889 67.1965 187.791 71.0823 187.791 75.867V207.133C187.791 211.918 183.889 215.804 179.086 215.804H94.9141C90.1103 215.804 86.2091 211.918 86.2091 207.133V75.867C86.2091 71.0823 90.1103 67.1965 94.9141 67.1965Z" fill="url(#paint0_linear_4005_48)" stroke="white" stroke-width="6.4" stroke-miterlimit="10" stroke-linecap="round"/>
<path d="M168.385 86.2656H105.615C102.563 86.2656 100.089 88.7298 100.089 91.7696V103.976C100.089 107.016 102.563 109.48 105.615 109.48H168.385C171.437 109.48 173.911 107.016 173.911 103.976V91.7696C173.911 88.7298 171.437 86.2656 168.385 86.2656Z" fill="url(#paint1_linear_4005_48)" stroke="white" stroke-width="6.4" stroke-miterlimit="10" stroke-linecap="round"/>
<path d="M108.764 127.351H105.615C102.563 127.351 100.089 129.815 100.089 132.855V135.991C100.089 139.031 102.563 141.495 105.615 141.495H108.764C111.816 141.495 114.29 139.031 114.29 135.991V132.855C114.29 129.815 111.816 127.351 108.764 127.351Z" fill="url(#paint2_linear_4005_48)" stroke="white" stroke-width="6" stroke-miterlimit="10" stroke-linecap="round"/>
<path d="M138.569 127.351H135.42C132.369 127.351 129.895 129.815 129.895 132.855V135.991C129.895 139.031 132.369 141.495 135.42 141.495H138.569C141.621 141.495 144.095 139.031 144.095 135.991V132.855C144.095 129.815 141.621 127.351 138.569 127.351Z" fill="url(#paint3_linear_4005_48)" stroke="white" stroke-width="6" stroke-miterlimit="10" stroke-linecap="round"/>
<path d="M168.385 127.351H165.236C162.184 127.351 159.71 129.815 159.71 132.855V135.991C159.71 139.031 162.184 141.495 165.236 141.495H168.385C171.437 141.495 173.911 139.031 173.911 135.991V132.855C173.911 129.815 171.437 127.351 168.385 127.351Z" fill="url(#paint4_linear_4005_48)" stroke="white" stroke-width="6" stroke-miterlimit="10" stroke-linecap="round"/>
<path d="M108.764 157.508H105.615C102.563 157.508 100.089 159.972 100.089 163.012V166.148C100.089 169.188 102.563 171.652 105.615 171.652H108.764C111.816 171.652 114.29 169.188 114.29 166.148V163.012C114.29 159.972 111.816 157.508 108.764 157.508Z" fill="url(#paint5_linear_4005_48)" stroke="white" stroke-width="6" stroke-miterlimit="10" stroke-linecap="round"/>
<path d="M138.569 157.508H135.42C132.369 157.508 129.895 159.972 129.895 163.012V166.148C129.895 169.188 132.369 171.652 135.42 171.652H138.569C141.621 171.652 144.095 169.188 144.095 166.148V163.012C144.095 159.972 141.621 157.508 138.569 157.508Z" fill="url(#paint6_linear_4005_48)" stroke="white" stroke-width="6" stroke-miterlimit="10" stroke-linecap="round"/>
<path d="M168.385 157.508H165.236C162.184 157.508 159.71 159.972 159.71 163.012V166.148C159.71 169.188 162.184 171.652 165.236 171.652H168.385C171.437 171.652 173.911 169.188 173.911 166.148V163.012C173.911 159.972 171.437 157.508 168.385 157.508Z" fill="url(#paint7_linear_4005_48)" stroke="white" stroke-width="6" stroke-miterlimit="10" stroke-linecap="round"/>
<path d="M108.764 187.665H105.615C102.563 187.665 100.089 190.129 100.089 193.169V196.305C100.089 199.345 102.563 201.809 105.615 201.809H108.764C111.816 201.809 114.29 199.345 114.29 196.305V193.169C114.29 190.129 111.816 187.665 108.764 187.665Z" fill="url(#paint8_linear_4005_48)" stroke="white" stroke-width="6" stroke-miterlimit="10" stroke-linecap="round"/>
<path d="M138.569 187.665H135.42C132.369 187.665 129.895 190.129 129.895 193.169V196.305C129.895 199.345 132.369 201.809 135.42 201.809H138.569C141.621 201.809 144.095 199.345 144.095 196.305V193.169C144.095 190.129 141.621 187.665 138.569 187.665Z" fill="url(#paint9_linear_4005_48)" stroke="white" stroke-width="6" stroke-miterlimit="10" stroke-linecap="round"/>
<path d="M168.385 187.665H165.236C162.184 187.665 159.71 190.129 159.71 193.169V196.305C159.71 199.345 162.184 201.809 165.236 201.809H168.385C171.437 201.809 173.911 199.345 173.911 196.305V193.169C173.911 190.129 171.437 187.665 168.385 187.665Z" fill="url(#paint10_linear_4005_48)" stroke="white" stroke-width="6" stroke-miterlimit="10" stroke-linecap="round"/>
</g>
<circle cx="142.5" cy="142.5" r="141.5" stroke="url(#paint11_linear_4005_48)" stroke-width="2"/>
<defs>
<linearGradient id="paint0_linear_4005_48" x1="137" y1="46.0198" x2="137" y2="215.804" gradientUnits="userSpaceOnUse">
<stop stop-color="white"/>
<stop offset="1" stop-color="white" stop-opacity="0"/>
</linearGradient>
<linearGradient id="paint1_linear_4005_48" x1="137" y1="82.9575" x2="137" y2="109.48" gradientUnits="userSpaceOnUse">
<stop stop-color="white"/>
<stop offset="1" stop-color="white" stop-opacity="0"/>
</linearGradient>
<linearGradient id="paint2_linear_4005_48" x1="107.189" y1="125.335" x2="107.189" y2="141.495" gradientUnits="userSpaceOnUse">
<stop stop-color="white"/>
<stop offset="1" stop-color="white" stop-opacity="0"/>
</linearGradient>
<linearGradient id="paint3_linear_4005_48" x1="136.995" y1="125.335" x2="136.995" y2="141.495" gradientUnits="userSpaceOnUse">
<stop stop-color="white"/>
<stop offset="1" stop-color="white" stop-opacity="0"/>
</linearGradient>
<linearGradient id="paint4_linear_4005_48" x1="166.81" y1="125.335" x2="166.81" y2="141.495" gradientUnits="userSpaceOnUse">
<stop stop-color="white"/>
<stop offset="1" stop-color="white" stop-opacity="0"/>
</linearGradient>
<linearGradient id="paint5_linear_4005_48" x1="107.189" y1="155.492" x2="107.189" y2="171.652" gradientUnits="userSpaceOnUse">
<stop stop-color="white"/>
<stop offset="1" stop-color="white" stop-opacity="0"/>
</linearGradient>
<linearGradient id="paint6_linear_4005_48" x1="136.995" y1="155.492" x2="136.995" y2="171.652" gradientUnits="userSpaceOnUse">
<stop stop-color="white"/>
<stop offset="1" stop-color="white" stop-opacity="0"/>
</linearGradient>
<linearGradient id="paint7_linear_4005_48" x1="166.81" y1="155.492" x2="166.81" y2="171.652" gradientUnits="userSpaceOnUse">
<stop stop-color="white"/>
<stop offset="1" stop-color="white" stop-opacity="0"/>
</linearGradient>
<linearGradient id="paint8_linear_4005_48" x1="107.189" y1="185.649" x2="107.189" y2="201.809" gradientUnits="userSpaceOnUse">
<stop stop-color="white"/>
<stop offset="1" stop-color="white" stop-opacity="0"/>
</linearGradient>
<linearGradient id="paint9_linear_4005_48" x1="136.995" y1="185.649" x2="136.995" y2="201.809" gradientUnits="userSpaceOnUse">
<stop stop-color="white"/>
<stop offset="1" stop-color="white" stop-opacity="0"/>
</linearGradient>
<linearGradient id="paint10_linear_4005_48" x1="166.81" y1="185.649" x2="166.81" y2="201.809" gradientUnits="userSpaceOnUse">
<stop stop-color="white"/>
<stop offset="1" stop-color="white" stop-opacity="0"/>
</linearGradient>
<linearGradient id="paint11_linear_4005_48" x1="238.5" y1="42" x2="43" y2="237.5" gradientUnits="userSpaceOnUse">
<stop stop-color="white" stop-opacity="0"/>
<stop offset="0.199905" stop-color="white"/>
<stop offset="0.813618" stop-color="white"/>
<stop offset="1" stop-color="white" stop-opacity="0"/>
</linearGradient>
<clipPath id="clip0_4005_48">
<rect width="108" height="155" fill="white" transform="translate(83 64)"/>
</clipPath>
</defs>
</svg>
