<svg width="210" height="210" viewBox="0 0 210 210" fill="none" xmlns="http://www.w3.org/2000/svg">
<circle cx="105" cy="105" r="100" fill="#E5F0EF"/>
<g filter="url(#filter0_d_83_855)">
<circle cx="105" cy="105" r="85" fill="white"/>
</g>
<path d="M171.257 115.448C171.257 126.606 167.155 136.821 160.354 144.708C158.724 146.6 156.938 148.359 155.016 149.961C142.548 150.91 123.996 151.511 103.279 151.511C86.5091 151.511 71.1566 151.116 59.303 150.464C56.8897 148.568 54.6576 146.457 52.6342 144.162C44.9359 135.429 40.2747 124.025 40.2747 111.551C40.2747 84.0687 62.8892 61.7893 90.7845 61.7893C99.6811 61.7893 108.041 64.0561 115.302 68.0344C118.017 69.5214 121.067 70.316 124.161 70.239C124.556 70.2296 124.954 70.2243 125.352 70.2243C150.704 70.2243 171.256 90.4718 171.256 115.448H171.257Z" fill="#E8F2FA"/>
<path d="M173.744 148.118C173.744 149.209 167.631 150.208 157.504 150.977C145.036 151.926 126.484 152.526 105.766 152.526C88.9962 152.526 73.6438 152.132 61.7901 151.48C47.1069 150.671 37.7888 149.465 37.7888 148.118C37.7888 146.988 44.3437 145.958 55.1214 145.178C67.5683 144.278 85.6471 143.71 105.766 143.71C129.69 143.71 150.727 144.511 162.841 145.723C169.739 146.412 173.744 147.234 173.744 148.117V148.118Z" fill="#B6CBE6"/>
<path opacity="0.45" d="M50.9292 130.473C55.2862 130.473 58.8183 126.941 58.8183 122.584C58.8183 118.227 55.2862 114.695 50.9292 114.695C46.5722 114.695 43.0401 118.227 43.0401 122.584C43.0401 126.941 46.5722 130.473 50.9292 130.473Z" fill="#B6CAE5"/>
<path d="M50.1008 129.453C54.4578 129.453 57.9899 125.921 57.9899 121.564C57.9899 117.207 54.4578 113.675 50.1008 113.675C45.7438 113.675 42.2117 117.207 42.2117 121.564C42.2117 125.921 45.7438 129.453 50.1008 129.453Z" fill="#B6CAE5"/>
<path d="M54.7493 121.41C54.7493 123.096 54.1054 124.126 52.9852 124.126C52.3508 124.126 51.9145 123.789 51.7965 123.185C51.4002 123.799 50.7458 124.126 49.9132 124.126C48.5063 124.126 47.4852 123.055 47.4852 121.579C47.4852 120.103 48.5063 119.052 49.9132 119.052C50.6762 119.052 51.3201 119.34 51.7269 119.894V119.091H52.5889V122.659C52.5889 123.184 52.8471 123.373 53.1538 123.373C53.7387 123.373 54.0759 122.659 54.0759 121.42C54.0759 119.199 52.4709 117.714 50.1314 117.714C47.7918 117.714 46.1773 119.3 46.1773 121.548C46.1773 123.797 47.7434 125.403 50.0924 125.403C50.6973 125.403 51.4202 125.275 52.0051 124.967L52.2233 125.602C51.6184 125.909 50.7964 126.067 50.0924 126.067C47.3376 126.067 45.4544 124.175 45.4544 121.548C45.4544 118.922 47.3577 117.059 50.1324 117.059C52.9072 117.059 54.7504 118.843 54.7504 121.409L54.7493 121.41ZM51.7459 121.579C51.7459 120.479 51.0124 119.815 50.0513 119.815C49.0902 119.815 48.3662 120.499 48.3662 121.579C48.3662 122.659 49.0596 123.353 50.0513 123.353C51.043 123.353 51.7459 122.679 51.7459 121.579Z" fill="white"/>
<path d="M67.2827 88.7234H144.249C144.738 88.7234 145.136 89.1207 145.136 89.6097V130.397H66.3964V89.6097C66.3964 89.1207 66.7937 88.7234 67.2827 88.7234Z" fill="#84B0ED"/>
<path d="M141.778 127.038V92.0808H69.7551V127.038H141.778Z" fill="#1E3C78"/>
<path d="M145.137 130.397V136.666C145.137 137.256 144.658 137.735 144.068 137.735H67.465C66.8749 137.735 66.3964 137.256 66.3964 136.666V130.397H145.137Z" fill="#92BFF8"/>
<path d="M114.933 140.633V146.055H96.5986V137.733H99.7665L114.933 140.633Z" fill="#84B0ED"/>
<path d="M90.3598 146.054H121.173C122.385 146.054 123.368 147.037 123.368 148.249V149.443H88.1647V148.249C88.1647 147.037 89.1479 146.054 90.3598 146.054Z" fill="#5F8ACE"/>
<path d="M105.766 135.651C106.642 135.651 107.352 134.941 107.352 134.065C107.352 133.189 106.642 132.479 105.766 132.479C104.89 132.479 104.18 133.189 104.18 134.065C104.18 134.941 104.89 135.651 105.766 135.651Z" fill="#5F8ACE"/>
<path d="M114.933 137.733V140.633L99.7665 137.733H114.933Z" fill="#6896D2"/>
<path d="M86.0454 80.4021V85.3952L82.8259 82.7237L86.0454 80.4021Z" fill="#5C98F0"/>
<path d="M128.707 82.7239L124.579 86.1478V79.7478L128.707 82.7239Z" fill="#5C98F0"/>
<path d="M124.579 71.6249V86.148L108.411 99.5666L107.066 98.5876C106.283 98.029 105.232 98.0322 104.452 98.596L103.12 99.5666L86.0444 85.3945V71.6239C86.0444 69.9925 87.367 68.6699 88.9983 68.6699H121.624C123.256 68.6699 124.578 69.9925 124.578 71.6239L124.579 71.6249Z" fill="white"/>
<path d="M128.707 114.349H82.8259L93.455 106.607L103.121 99.5664L104.453 98.5958C105.233 98.032 106.285 98.0288 107.068 98.5873L108.412 99.5664L118.078 106.607L128.707 114.349Z" fill="#5B97EF"/>
<path d="M104.509 72.6545H88.8771V73.7621H104.509V72.6545Z" fill="#3B82F4"/>
<path d="M121.748 75.0972H88.8771V76.2048H121.748V75.0972Z" fill="#ECF2FE"/>
<path d="M121.748 77.54H88.8771V78.6476H121.748V77.54Z" fill="#ECF2FE"/>
<path d="M121.748 79.9829H88.8771V81.0905H121.748V79.9829Z" fill="#ECF2FE"/>
<path d="M121.748 82.4258H88.8771V83.5334H121.748V82.4258Z" fill="#ECF2FE"/>
<path d="M121.748 84.8684H88.8771V85.976H121.748V84.8684Z" fill="#ECF2FE"/>
<path d="M121.748 87.3113H88.8771V88.4189H121.748V87.3113Z" fill="#ECF2FE"/>
<path d="M121.748 89.7542H88.8771V90.8617H121.748V89.7542Z" fill="#ECF2FE"/>
<path d="M121.748 92.1968H88.8771V93.3044H121.748V92.1968Z" fill="#ECF2FE"/>
<path d="M121.748 94.6396H88.8771V95.7472H121.748V94.6396Z" fill="#ECF2FE"/>
<path d="M121.748 97.0825H88.8771V98.1901H121.748V97.0825Z" fill="#ECF2FE"/>
<path d="M128.707 82.7239V114.349L118.078 106.607L108.412 99.5664L124.579 86.1478L128.707 82.7239Z" fill="#3B82F4"/>
<path d="M103.121 99.5664L93.454 106.607L82.8259 114.349V82.7239L86.0454 85.3954L103.121 99.5664Z" fill="#3B82F4"/>
<path d="M71.8733 148.829C71.8912 148.993 71.9197 149.255 71.946 149.586C71.946 149.605 72.1968 149.666 72.2221 149.673C73.2412 149.975 74.3151 150.102 75.3763 150.023C75.5723 150.008 75.7673 149.986 75.9633 149.958C76.2784 149.913 76.5903 149.814 76.8369 149.604C76.9971 149.467 77.1584 149.24 77.0456 149.028C76.9908 148.923 76.8949 148.85 76.7979 148.785C76.3469 148.488 75.8063 148.329 75.3141 148.114C75.2077 148.068 75.1107 148.007 75.0148 147.944C74.9748 147.918 74.7313 147.782 74.7313 147.738C74.7282 147.689 74.7103 147.512 74.5849 147.444C74.5564 147.429 74.5311 147.419 74.4784 147.417C74.4468 147.417 74.4152 147.417 74.3846 147.42C74.3604 147.421 74.3362 147.424 74.314 147.425C74.0959 147.451 73.9325 147.53 73.9325 147.53C73.5563 147.714 73.0051 147.686 72.6626 147.584C72.5172 147.539 72.3823 147.473 72.2664 147.435H72.2653C72.1579 147.4 72.0672 147.39 71.9977 147.444C71.9618 147.472 71.9439 147.507 71.9313 147.538C71.7658 147.931 71.8491 148.636 71.8723 148.828L71.8733 148.829Z" fill="#1A1943"/>
<path d="M63.4088 147.931C63.4193 147.935 63.4309 147.94 63.4404 147.943C63.7123 148.044 64.0896 148.138 64.5364 148.116C64.7303 148.106 64.9063 148.077 65.0601 148.038L65.2973 147.22C64.9253 147.274 64.2782 147.332 63.5711 147.236C63.5616 147.235 63.5542 147.234 63.5447 147.232H63.5437L63.4077 147.931H63.4088Z" fill="#F6B1C3"/>
<path d="M62.8882 149.219C62.9019 149.296 62.9209 149.397 62.981 149.512C63.1296 149.802 63.3951 149.935 63.5669 150.017C64.0749 150.263 64.5828 150.21 65.017 150.165C65.6093 150.101 66.1826 150.04 66.3069 149.699C66.4028 149.436 66.1921 149.11 66.1604 149.06C65.9876 148.795 65.8032 148.798 65.6409 148.555C65.5893 148.475 65.5376 148.37 65.5102 148.225C65.4807 148.066 65.3237 147.962 65.1688 148.008C65.1403 148.016 65.1098 148.024 65.0781 148.033C65.0729 148.034 65.0665 148.036 65.0602 148.037C64.9064 148.076 64.7304 148.106 64.5365 148.115C64.0896 148.138 63.7124 148.044 63.4405 147.942C63.4299 147.939 63.4183 147.934 63.4088 147.93C63.4036 147.929 63.3983 147.926 63.393 147.924C63.2402 147.864 63.0695 147.956 63.0316 148.115C63.0126 148.195 62.9957 148.266 62.981 148.329C62.8566 148.877 62.8566 149.053 62.8882 149.219Z" fill="#1A1943"/>
<path d="M63.1549 147.162C63.2855 147.192 63.4162 147.215 63.5448 147.232C63.5543 147.234 63.5616 147.235 63.5711 147.237C64.2772 147.332 64.9253 147.274 65.2973 147.22C65.3015 147.22 65.3058 147.22 65.3089 147.22C65.5102 147.191 65.6272 147.163 65.6272 147.163C69.9047 128.612 70.6277 129.335 70.6277 129.335C71.026 133.104 71.9555 146.039 71.9914 146.542C71.9914 146.552 71.9914 146.557 71.9914 146.557C72.0746 146.567 72.1589 146.575 72.2485 146.582H72.2496C72.6837 146.618 73.1822 146.621 73.7302 146.557C73.9083 146.536 74.079 146.51 74.2413 146.479C74.2519 146.477 74.2635 146.475 74.274 146.473C74.2856 146.473 74.2961 146.47 74.3056 146.468C74.3562 146.457 74.4057 146.448 74.4542 146.437C74.8241 140.173 75.1055 135.443 75.3226 132.652C75.3816 131.894 75.5186 130.22 75.3721 127.993C75.2952 126.829 75.155 125.755 74.9853 124.782L66.0782 124.275C65.7979 125.713 65.4164 127.809 65.0391 130.359C64.88 131.448 64.6397 133.156 64.1465 137.673C63.9041 139.891 63.5901 142.871 63.2539 146.437L63.1538 147.163L63.1549 147.162Z" fill="#404654"/>
<path d="M72.2506 146.582V146.599V146.896C72.2548 147.041 72.2601 147.185 72.2643 147.332C72.2643 147.368 72.2664 147.401 72.2674 147.436C72.3823 147.474 72.5172 147.539 72.6637 147.585C73.0062 147.687 73.5563 147.714 73.9336 147.531C73.9336 147.531 74.0969 147.452 74.315 147.426C74.3372 147.424 74.3614 147.421 74.3857 147.42C74.3361 147.105 74.2761 146.795 74.2423 146.478C74.08 146.509 73.9104 146.535 73.7312 146.556C73.1832 146.621 72.6848 146.617 72.2495 146.582H72.2506Z" fill="#F6B1C3"/>
<path d="M72.1536 108.8C72.0282 109.089 71.867 109.375 71.6151 109.562C71.4507 109.684 71.2652 109.757 71.0745 109.787C70.615 109.859 70.1144 109.696 69.7392 109.434C69.4494 109.231 69.2092 108.957 69.0279 108.647C68.9362 108.493 68.8582 108.328 68.7961 108.161C68.7634 108.073 68.736 107.985 68.7117 107.897C68.6907 107.82 68.6728 107.742 68.658 107.663C68.5568 107.609 68.424 107.514 68.3376 107.351C68.2333 107.154 68.2523 106.964 68.267 106.838C68.2913 106.598 68.3872 106.422 68.4472 106.329C68.4862 106.317 68.6464 106.275 68.7687 106.365C68.8055 106.391 68.834 106.426 68.8635 106.485C68.9531 106.662 68.9573 106.854 68.9457 106.986C69.0026 106.806 69.0595 106.573 69.0785 106.299C69.0816 106.266 69.0838 106.232 69.0848 106.199C69.0996 105.837 69.2186 105.485 69.4484 105.203C69.4747 105.171 69.5032 105.138 69.5327 105.104C69.7593 104.846 69.9216 104.661 70.145 104.591C70.5665 104.458 71.0039 104.799 71.2241 104.941C71.5276 105.136 71.965 105.308 72.6173 105.333C72.6321 105.456 72.6426 105.581 72.6521 105.705C72.7206 106.754 72.572 107.84 72.1547 108.801L72.1536 108.8Z" fill="#FBCBA5"/>
<path d="M73.5605 104.276C73.5647 104.829 73.2539 105.203 73.1685 105.301C73.1632 105.308 73.158 105.313 73.1527 105.319C72.983 105.512 72.7975 105.631 72.6511 105.703C72.6426 105.579 72.631 105.454 72.6163 105.331C71.9639 105.306 71.5266 105.135 71.2231 104.939C71.0028 104.797 70.5655 104.457 70.144 104.589C69.9205 104.66 69.7582 104.845 69.5317 105.102C69.5032 105.136 69.4748 105.169 69.4474 105.201C69.2187 105.483 69.0985 105.835 69.0838 106.197C69.0838 106.23 69.0806 106.264 69.0775 106.297C69.0574 106.571 69.0016 106.805 68.9447 106.983C68.9563 106.852 68.9531 106.66 68.8625 106.483C68.833 106.424 68.8045 106.389 68.7676 106.363C68.6454 106.274 68.4852 106.315 68.4462 106.327C68.3893 106.181 68.0173 105.207 68.5411 104.354C68.7065 104.082 68.9173 103.901 69.0891 103.783C69.2577 103.469 69.5338 103.089 69.9574 102.984C70.4675 102.857 70.6825 103.255 71.4455 103.304C72.2959 103.36 72.5868 102.904 73.0336 103.148C73.5416 103.424 73.5574 104.224 73.5584 104.275L73.5605 104.276Z" fill="#1A1943"/>
<path d="M72.2548 110.749C72.1304 111.419 71.7405 111.987 71.1851 112.268C70.1007 112.818 68.9541 111.994 68.7781 111.862C68.2322 111.453 67.9593 110.918 67.8244 110.526C68.1711 110.376 68.4651 110.195 68.7086 110.018C68.737 109.735 68.7613 109.44 68.776 109.135C68.7929 108.798 68.7992 108.472 68.796 108.161C68.8582 108.329 68.9362 108.493 69.0279 108.648C69.1923 109.349 69.6391 109.924 70.2535 110.182C70.556 110.308 70.8468 110.335 71.0829 110.326C71.0808 110.291 71.0787 110.255 71.0776 110.221C71.1387 110.249 71.2051 110.279 71.2747 110.31C71.4465 110.388 71.6414 110.476 71.8575 110.573C72.005 110.639 72.1357 110.698 72.2548 110.751V110.749Z" fill="#FBCBA5"/>
<path d="M63.8704 119.426C63.9168 119.735 64.0032 120.154 64.2393 120.62C64.2424 120.625 64.2445 120.63 64.2466 120.635C64.4627 121.059 64.8747 121.354 65.3458 121.414C65.3806 121.419 65.4164 121.423 65.4512 121.425C65.6082 121.439 65.8242 121.444 66.113 121.392C66.1699 121.95 66.1857 122.603 66.1109 123.326C66.0477 123.943 65.9317 124.488 65.8011 124.947C65.9802 124.983 66.1551 125.017 66.3269 125.048C66.661 125.109 66.9814 125.161 67.2859 125.206C67.9878 125.31 68.6085 125.373 69.1312 125.413C69.93 125.475 70.6635 125.53 71.4191 125.516C71.4296 125.516 71.4412 125.516 71.4518 125.516C72.0883 125.503 72.7406 125.44 73.4604 125.293C73.5637 125.272 73.6638 125.25 73.7618 125.228C73.9378 125.186 74.1043 125.143 74.2603 125.1C74.6344 124.995 74.9516 124.886 75.2024 124.793C75.1687 124.321 75.1128 123.588 75.0296 122.689C74.8694 120.948 74.7798 120.435 74.7366 119.515C74.7134 119.012 74.7018 118.337 74.7472 117.525C74.9695 117.893 75.1171 118.226 75.2203 118.502C75.4522 119.129 75.5418 119.71 76.0708 120.388C76.4164 120.832 76.6873 120.985 76.956 121.022C77.3417 121.073 77.6368 120.906 77.7264 120.849C77.9171 120.6 78.1953 120.16 78.2554 119.573C78.3155 118.993 78.1353 118.545 77.8297 117.813C77.5261 117.083 77.3965 117.048 76.9908 116.145C76.7326 115.57 76.5629 115.091 76.4681 114.818C76.4259 114.905 76.3806 114.984 76.3501 115.09C76.3121 115.221 76.31 115.348 76.3216 115.458C76.5123 115.526 76.6736 115.645 76.7621 115.818C76.8443 115.976 76.8559 116.159 76.818 116.336C76.7769 116.528 76.6778 116.712 76.5482 116.847C76.154 117.256 75.4511 117.228 75.1044 116.899C75.0854 116.881 75.0686 116.863 75.0528 116.844C74.8989 116.665 74.8683 116.46 74.8631 116.422C74.8399 116.25 74.8757 116.098 74.9305 115.975C74.882 115.863 74.8093 115.741 74.6934 115.633C74.5891 115.537 74.5796 115.573 74.2529 115.384C74.2529 115.384 73.98 115.224 73.6227 114.926C73.5279 114.846 73.4509 114.777 73.4151 114.659C73.3814 114.543 73.4046 114.436 73.4235 114.374C73.3392 114.312 73.2971 114.209 73.3118 114.106C73.3255 114.004 73.3961 113.918 73.492 113.882C73.7871 114.009 74.0896 114.136 74.3983 114.261C74.6913 114.38 74.9822 114.496 75.2688 114.607C74.9337 114.355 74.6639 114.179 74.4753 114.063C74.2929 113.951 74.1328 113.808 73.9578 113.684C73.8124 113.581 73.7197 113.52 73.7081 113.416C73.6901 113.272 73.8377 113.146 73.8883 113.105C74.1812 113.235 74.4911 113.382 74.8114 113.554C75.1845 113.753 75.5238 113.958 75.8295 114.157C75.7694 113.908 75.6693 113.741 75.5881 113.631C75.5175 113.535 75.4574 113.483 75.1834 113.165C75.0654 113.03 75.0085 112.96 75.0022 112.855C74.9927 112.72 75.0728 112.611 75.1234 112.553C75.1971 112.594 75.3036 112.656 75.4248 112.743C75.5217 112.812 75.7515 112.983 75.9991 113.267C75.9622 113.175 75.9159 113.077 75.8505 112.96C75.6967 112.683 75.3668 112.107 74.724 111.706C74.2929 111.436 74.2497 111.576 73.1527 111.142C72.9556 111.064 72.6953 110.949 72.2506 110.75C72.1262 111.42 71.7363 111.988 71.1799 112.269C70.0955 112.82 68.9489 111.995 68.7729 111.864C68.227 111.454 67.9541 110.919 67.8192 110.526C67.7064 110.576 67.5884 110.622 67.4651 110.664C66.8423 110.877 66.6399 110.796 66.1109 111.044C65.9581 111.115 65.3163 111.432 64.8041 112.133C64.4247 112.652 64.2983 113.134 64.1592 113.677C64.0116 114.257 63.9895 114.637 63.922 115.62C63.7977 117.452 63.7187 118.46 63.8662 119.427L63.8704 119.426ZM69.7509 116.344C69.7509 116.344 69.8605 116.353 70.0112 116.401C70.1355 116.222 70.2156 116.064 70.2694 115.938C70.4116 115.607 70.4232 115.386 70.5802 114.638C70.6498 114.309 70.712 114.042 70.752 113.873C70.9143 113.755 71.1019 113.617 71.3106 113.464C71.4918 113.333 71.7068 113.177 71.9945 113.004C72.3296 112.804 72.4645 112.761 72.61 112.786C72.7417 112.809 72.8407 112.883 72.9029 112.941C72.7744 113.052 72.5952 113.232 72.4424 113.493C72.2327 113.853 72.2158 114.131 72.063 114.793C72.0114 115.017 71.9313 115.337 71.8154 115.725C71.9313 115.677 72.0029 115.616 72.0451 115.575C72.2559 115.372 72.2084 115.157 72.4477 114.863C72.5372 114.752 72.5941 114.722 72.6437 114.708C72.8091 114.66 72.9693 114.774 73.0178 114.81C72.7733 115.172 72.5235 115.599 72.298 116.093C72.2095 116.291 72.1315 116.483 72.063 116.668C71.9703 116.676 71.8343 116.695 71.6773 116.749C71.3611 116.857 71.1641 117.038 70.9185 117.267C70.8975 117.287 70.8753 117.307 70.8521 117.33C70.889 117.518 70.8932 117.741 70.8521 118.006C70.7162 117.926 70.5908 117.84 70.4759 117.745C70.1482 117.473 69.9153 117.139 69.8109 116.764C69.8036 116.738 69.7962 116.709 69.7888 116.677C69.7677 116.585 69.7519 116.473 69.7488 116.345L69.7509 116.344Z" fill="#614DD3"/>
<path d="M73.0199 114.809C72.7754 115.171 72.5256 115.597 72.3001 116.092C72.2116 116.29 72.1336 116.482 72.0651 116.667C71.9723 116.676 71.8364 116.693 71.6794 116.748C71.3632 116.856 71.1661 117.037 70.9206 117.266C70.8995 117.286 70.8774 117.306 70.8542 117.329C70.7436 117.436 70.6139 117.574 70.479 117.743C70.1513 117.471 69.9184 117.137 69.8141 116.762C69.8067 116.736 69.7993 116.707 69.7919 116.676C69.8783 116.581 69.95 116.488 70.0122 116.401C70.1365 116.222 70.2166 116.064 70.2704 115.938C70.4126 115.607 70.4242 115.386 70.5813 114.638C70.6508 114.309 70.713 114.042 70.753 113.873C70.9153 113.755 71.1029 113.617 71.3116 113.465C71.4928 113.332 71.7078 113.177 71.9955 113.004C72.3306 112.804 72.4655 112.761 72.611 112.786C72.7438 112.81 72.8418 112.883 72.9039 112.941C72.7754 113.052 72.5962 113.232 72.4434 113.493C72.2337 113.853 72.2168 114.131 72.064 114.793C72.0113 115.017 71.9323 115.337 71.8164 115.725C71.9323 115.677 72.004 115.616 72.0461 115.575C72.2569 115.372 72.2095 115.157 72.4487 114.863C72.5383 114.752 72.5952 114.722 72.6436 114.708C72.808 114.66 72.9693 114.774 73.0178 114.81L73.0199 114.809Z" fill="#FBCBA5"/>
<path d="M71.0829 110.324C70.8468 110.333 70.556 110.306 70.2535 110.18C69.6381 109.922 69.1923 109.347 69.0279 108.646C69.2092 108.955 69.4494 109.23 69.7392 109.432C70.1144 109.695 70.616 109.859 71.0745 109.785C71.0713 109.91 71.0702 110.039 71.0745 110.173C71.0745 110.188 71.0745 110.203 71.0766 110.218C71.0766 110.253 71.0797 110.288 71.0818 110.323L71.0829 110.324Z" fill="#C68C8B"/>
<path d="M75.0548 116.843C74.901 116.664 74.8704 116.459 74.8651 116.421C74.842 116.249 74.8778 116.097 74.9326 115.974C74.9726 116.065 74.9969 116.149 75.0148 116.211C75.0843 116.457 75.0791 116.68 75.0548 116.843Z" fill="#3E3593"/>
<path d="M76.819 116.334C76.6788 116.226 76.5102 116.051 76.4112 115.796C76.388 115.738 76.3405 115.613 76.3226 115.457C76.5134 115.525 76.6736 115.644 76.7631 115.817C76.8453 115.975 76.8569 116.158 76.819 116.335V116.334Z" fill="#3E3593"/>
<path d="M70.8543 118.004C70.7183 117.925 70.5929 117.838 70.478 117.743C70.6129 117.575 70.7425 117.437 70.8532 117.329C70.8901 117.517 70.8943 117.74 70.8532 118.005L70.8543 118.004Z" fill="#3E3593"/>
<path d="M70.0112 116.4C69.949 116.487 69.8773 116.58 69.7909 116.675C69.7698 116.583 69.753 116.471 69.7509 116.343C69.7509 116.343 69.8605 116.351 70.0112 116.399V116.4Z" fill="#3E3593"/>
<path d="M73.1158 115.455L75.0043 116.335L76.6599 112.083C76.7052 111.966 76.6514 111.834 76.5366 111.784L75.0865 111.139C74.9674 111.086 74.8272 111.141 74.7756 111.261L73.0504 115.289C73.023 115.353 73.0504 115.427 73.1147 115.456L73.1158 115.455Z" fill="#424242" stroke="#424242" stroke-width="0.0221308" stroke-miterlimit="10"/>
<path d="M76.819 116.334C76.7779 116.526 76.6788 116.71 76.5492 116.845C76.1551 117.254 75.4521 117.226 75.1054 116.897C75.0865 116.879 75.0696 116.861 75.0538 116.842C75.077 116.679 75.0822 116.455 75.0137 116.21C74.9958 116.148 74.9727 116.063 74.9316 115.973C74.8831 115.861 74.8104 115.739 74.6944 115.631C74.5901 115.535 74.5806 115.571 74.2539 115.381C74.2539 115.381 73.981 115.222 73.6237 114.924C73.5289 114.844 73.452 114.774 73.4161 114.656C73.3824 114.54 73.4056 114.434 73.4245 114.372C73.3402 114.31 73.2981 114.207 73.3128 114.104C73.3265 114.002 73.3971 113.916 73.493 113.88C73.7881 114.007 74.0906 114.134 74.3994 114.259C74.6923 114.378 74.9842 114.494 75.2698 114.605C74.9347 114.353 74.6649 114.177 74.4763 114.061C74.295 113.949 74.1338 113.805 73.9588 113.682C73.8134 113.579 73.7207 113.517 73.7091 113.414C73.6912 113.27 73.8387 113.144 73.8893 113.103C74.1823 113.233 74.491 113.38 74.8125 113.552C75.1855 113.751 75.5249 113.956 75.8305 114.155C75.7704 113.906 75.6703 113.738 75.5881 113.629C75.5175 113.533 75.4574 113.481 75.1834 113.163C75.0664 113.028 75.0085 112.958 75.0022 112.853C74.9937 112.718 75.0728 112.609 75.1233 112.551C75.1971 112.592 75.3036 112.654 75.4248 112.74C75.5217 112.81 75.7514 112.981 75.9991 113.264C76.1066 113.388 76.2172 113.532 76.3216 113.697C76.3953 113.814 76.4902 113.98 76.5798 114.19C76.5861 114.256 76.5893 114.359 76.5713 114.482C76.5492 114.628 76.5081 114.725 76.4649 114.814C76.4227 114.902 76.3785 114.981 76.3469 115.087C76.3089 115.219 76.3068 115.346 76.3184 115.455C76.3374 115.611 76.3848 115.735 76.4069 115.793C76.506 116.05 76.6746 116.223 76.8148 116.332L76.819 116.334Z" fill="#FBCBA5"/>
<path d="M69.7508 116.344C69.1143 116.994 68.5094 117.349 68.0447 117.555C67.5504 117.776 67.2132 117.832 66.2099 118.197C66.1983 118.202 66.1857 118.206 66.172 118.211C65.5186 118.451 64.9927 118.671 64.645 118.823" stroke="#0307A6" stroke-width="0.0674461" stroke-miterlimit="10"/>
<path d="M66.211 118.197C66.2342 117.984 66.2532 117.755 66.2679 117.512C66.3333 116.425 66.2616 115.586 66.1899 114.77C66.1415 114.221 66.0571 113.484 65.9054 112.613" stroke="#0307A6" stroke-width="0.0674461" stroke-miterlimit="10"/>
<path d="M70.8542 118.003C70.105 118.786 69.4347 119.392 68.9267 119.823C68.0932 120.534 67.6295 120.835 67.0994 121.074C66.7031 121.252 66.3775 121.346 66.113 121.392" stroke="#0307A6" stroke-width="0.0674461" stroke-miterlimit="10"/>
<path d="M147.33 129.448C147.331 131.478 147.244 133.617 146.983 135.907C146.852 137.037 146.864 136.612 146.278 140.842C145.988 142.934 145.763 144.65 145.616 145.776C145.454 145.843 145.201 145.928 144.884 145.974C144.681 146.004 144.455 146.016 144.206 145.998C143.941 145.98 143.707 145.927 143.509 145.866C143.327 145.811 143.175 145.747 143.061 145.69C143.2 143.377 143.192 141.427 143.148 139.962C143.044 136.487 142.67 133.654 142.356 131.326C142.205 130.215 142.065 129.291 141.958 128.638C141.372 131.117 140.703 133.692 139.932 136.349C138.931 139.799 137.86 143.047 136.76 146.087C136.554 146.095 136.331 146.095 136.089 146.084C135.924 146.077 135.751 146.063 135.57 146.043C135.03 145.982 134.558 145.87 134.164 145.749C134.101 145.729 134.042 145.711 133.983 145.691C134.236 144.695 134.628 143.06 134.996 141.021C135.96 135.685 135.711 133.404 136.626 129.125C136.833 128.147 137.152 126.839 137.647 125.289C137.94 124.373 137.998 123.4 137.849 122.449L137.847 122.437C138.805 122.565 139.916 122.64 141.147 122.593C143.131 122.519 144.83 122.15 146.159 121.74C146.246 122.146 146.323 122.432 146.362 122.579C146.431 122.828 146.5 123.062 146.569 123.278C147.632 127.033 147.326 129.45 147.326 129.45L147.33 129.448Z" fill="#404654"/>
<path d="M143.017 148.102C143.016 148.196 143.043 148.292 143.103 148.367C143.127 148.398 143.155 148.424 143.187 148.444C143.296 148.513 143.44 148.51 143.547 148.509C143.763 148.506 143.791 148.44 144.046 148.405C144.272 148.374 144.48 148.396 144.571 148.405C144.678 148.417 144.766 148.423 144.94 148.436C145.084 148.446 145.132 148.447 145.178 148.418C145.294 148.343 145.283 148.142 145.278 148.084C145.26 147.948 145.233 147.747 145.196 147.507C145.194 147.497 145.193 147.485 145.19 147.474C145.137 147.121 145.101 146.88 145.035 146.583C144.989 146.369 144.939 146.166 144.885 145.974C144.683 146.003 144.456 146.016 144.208 145.997C143.943 145.978 143.709 145.926 143.511 145.865C143.472 146.016 143.422 146.202 143.365 146.414C143.181 147.095 143.127 147.237 143.081 147.481C143.071 147.529 143.063 147.581 143.054 147.637C143.035 147.771 143.021 147.926 143.018 148.102H143.017Z" fill="#FBCBA5"/>
<path d="M142.884 149.449C143.006 149.529 143.159 149.528 143.298 149.547C143.954 149.638 144.628 149.607 145.263 149.405C145.566 149.309 145.705 149.024 145.669 148.721C145.631 148.406 145.488 148.108 145.356 147.823C145.311 147.726 145.256 147.609 145.19 147.473C145.193 147.484 145.194 147.495 145.196 147.506C145.233 147.747 145.26 147.946 145.278 148.082C145.283 148.139 145.295 148.342 145.178 148.416C145.132 148.446 145.084 148.444 144.94 148.434C144.766 148.422 144.678 148.415 144.571 148.404C144.48 148.394 144.273 148.373 144.046 148.404C143.791 148.438 143.764 148.505 143.547 148.508C143.44 148.509 143.297 148.511 143.187 148.443C143.155 148.423 143.127 148.397 143.103 148.366C143.044 148.291 143.016 148.195 143.017 148.1C143.021 147.924 143.034 147.769 143.053 147.635C142.886 148.079 142.735 148.546 142.715 149.016C142.708 149.179 142.736 149.352 142.884 149.448V149.449Z" fill="#1A1943"/>
<path d="M131.924 148.133C131.964 148.152 132.008 148.173 132.057 148.191C132.277 148.274 132.461 148.271 132.613 148.289C133.09 148.342 133.459 148.309 133.706 148.284C134.148 148.241 134.371 148.219 134.63 148.12C135.127 147.93 135.377 147.835 135.532 147.698C135.564 147.67 135.639 147.599 135.73 147.577C135.743 147.356 135.768 147.168 135.794 147.019C135.851 146.696 135.92 146.497 135.941 146.437C135.989 146.3 136.043 146.182 136.093 146.083C135.926 146.076 135.752 146.062 135.572 146.042C135.033 145.981 134.561 145.869 134.167 145.748C134.105 145.988 134.06 146.165 134.03 146.277C133.981 146.47 133.96 146.553 133.906 146.668C133.885 146.712 133.805 146.878 133.631 147.072C133.51 147.207 133.365 147.331 133.088 147.504C132.758 147.709 132.597 147.761 132.316 147.908C132.206 147.965 132.073 148.039 131.925 148.135L131.924 148.133Z" fill="#FBCBA5"/>
<path d="M130.319 149.036C130.311 149.126 130.424 149.146 130.488 149.168C131.157 149.396 131.892 149.416 132.592 149.395C132.733 149.391 132.874 149.385 133.015 149.376C133.229 149.364 133.447 149.345 133.643 149.258C133.789 149.194 133.917 149.096 134.065 149.036C134.219 148.973 134.4 148.959 134.561 149.001C134.666 149.028 134.749 149.068 134.811 149.104C134.848 149.127 134.892 149.136 134.935 149.13C135.074 149.11 135.227 149.079 135.393 149.033C135.591 148.976 135.765 148.907 135.912 148.838C136.003 148.795 136.057 148.701 136.05 148.602C136.039 148.413 136.04 148.256 136.046 148.135C136.054 147.963 136.072 147.805 135.97 147.678C135.951 147.653 135.9 147.59 135.819 147.575C135.787 147.57 135.756 147.571 135.728 147.578C135.638 147.601 135.563 147.671 135.53 147.7C135.375 147.837 135.125 147.932 134.628 148.121C134.369 148.22 134.147 148.242 133.704 148.286C133.457 148.31 133.088 148.345 132.611 148.29C132.459 148.273 132.275 148.275 132.055 148.192C132.007 148.174 131.962 148.153 131.921 148.134C131.911 148.129 131.9 148.123 131.89 148.117C131.801 148.071 131.695 148.076 131.613 148.132C131.572 148.159 131.526 148.19 131.478 148.222C131.303 148.339 131.113 148.466 130.869 148.613C130.785 148.664 130.701 148.713 130.617 148.762C130.526 148.815 130.431 148.858 130.363 148.94C130.34 148.967 130.319 148.999 130.316 149.035L130.319 149.036Z" fill="#1A1943"/>
<path d="M139.657 105.939C139.651 106.257 139.648 106.645 139.776 107.124C139.789 107.174 139.803 107.222 139.818 107.268C139.906 107.549 140.022 107.769 140.223 108.147C140.44 108.558 140.545 108.663 140.658 108.74C140.766 108.813 140.876 108.856 140.978 108.882C141.114 108.916 141.235 108.92 141.313 108.922C141.731 108.935 142.037 108.764 142.183 108.681C142.473 108.516 142.642 108.315 142.771 108.161C142.959 107.933 143.084 107.708 143.162 107.529C143.181 107.487 143.197 107.451 143.21 107.415C143.216 107.402 143.286 107.378 143.327 107.363C143.34 107.358 143.349 107.354 143.354 107.352C143.585 107.228 143.748 107.002 143.842 106.761C143.905 106.597 143.96 106.406 143.943 106.228C143.931 106.1 143.87 105.965 143.758 105.896C143.633 105.817 143.468 105.902 143.382 106C143.338 106.05 143.346 106.09 143.305 106.114C143.223 106.161 143.091 106.081 143.015 106.031C142.514 105.695 142.151 105.452 141.991 104.923C141.877 104.546 141.924 104.215 141.966 104.031C141.768 104.139 141.47 104.297 141.102 104.476C140.518 104.759 140.363 104.796 140.179 104.913C140.019 105.014 139.845 105.17 139.69 105.419C139.675 105.559 139.66 105.735 139.658 105.937L139.657 105.939Z" fill="#FBCBA5"/>
<path d="M138.793 106.741C139.074 107.116 139.524 107.233 139.818 107.268C139.803 107.222 139.789 107.174 139.776 107.124C139.648 106.645 139.651 106.257 139.657 105.939C139.66 105.737 139.675 105.561 139.689 105.422C139.845 105.172 140.018 105.016 140.178 104.915C140.362 104.798 140.517 104.76 141.1 104.478C141.469 104.299 141.766 104.141 141.965 104.033C141.922 104.217 141.875 104.548 141.99 104.925C142.15 105.454 142.513 105.697 143.014 106.033C143.09 106.083 143.223 106.163 143.304 106.116C143.345 106.092 143.338 106.052 143.381 106.002C143.467 105.904 143.632 105.819 143.757 105.898C143.869 105.967 143.93 106.102 143.942 106.23C143.959 106.408 143.905 106.599 143.84 106.763C143.747 107.004 143.584 107.231 143.353 107.354C143.348 107.356 143.339 107.361 143.326 107.365C143.322 107.714 143.326 108.077 143.343 108.456C143.356 108.754 143.375 109.043 143.399 109.323C143.593 109.445 143.77 109.537 143.921 109.606C143.982 109.635 144.039 109.659 144.091 109.681C144.231 109.739 144.348 109.778 145.209 110.026C145.308 110.054 145.397 110.08 145.474 110.102C145.637 109.82 145.79 109.487 145.9 109.101C146.031 108.635 146.278 107.767 145.926 106.905C145.713 106.385 145.521 106.455 145.016 105.614C144.612 104.944 144.688 104.821 144.302 104.154C143.877 103.42 143.629 102.99 143.115 102.685C142.193 102.135 141.153 102.423 140.94 102.482C140.744 102.536 140.163 102.718 139.621 103.238C138.854 103.972 138.707 104.864 138.644 105.283C138.558 105.862 138.487 106.335 138.791 106.742L138.793 106.741Z" fill="#1A1943"/>
<path d="M135.342 117.717C135.441 117.923 135.552 118.139 135.701 118.426C135.701 118.426 135.869 118.753 136.258 119.159C136.344 119.25 136.454 119.354 136.625 119.395C136.784 119.433 136.924 119.4 137.003 119.373C137.189 119.214 137.389 119.019 137.588 118.785C137.739 118.607 137.868 118.431 137.979 118.26C137.976 118.996 137.914 119.736 137.899 120.467C137.88 121.466 137.867 122.059 137.874 122.607C137.916 122.626 137.96 122.644 138.005 122.663C138.258 122.768 138.549 122.872 138.874 122.962C140.043 123.288 140.977 123.249 141.896 123.202C142.894 123.151 143.693 123.104 144.612 122.65C144.722 122.596 144.822 122.542 144.914 122.488C145.011 122.431 145.1 122.377 145.178 122.324C145.22 122.248 145.252 122.174 145.277 122.104C145.065 122.253 144.779 122.387 144.513 122.367C144.364 122.356 144.176 122.261 144.155 122.095C144.137 121.95 144.293 121.914 144.404 121.897C144.532 121.878 144.661 121.877 144.787 121.842C144.932 121.802 145.053 121.694 145.166 121.598C145.295 121.487 145.414 121.366 145.541 121.254C145.613 121.192 145.681 121.143 145.76 121.104C145.593 120.647 145.38 120.199 145.185 119.762C144.69 118.651 144.723 117.392 144.998 116.229C145.072 115.911 145.169 115.6 145.273 115.291C145.461 115.809 145.604 116.251 145.709 116.593C145.959 117.41 146.055 117.865 146.38 118.489C146.486 118.69 146.595 118.873 146.703 119.034C146.747 118.863 146.853 118.608 147.103 118.423C147.169 118.375 147.514 118.118 147.875 118.24C148.071 118.307 148.181 118.455 148.258 118.56C148.29 118.602 148.316 118.644 148.339 118.686C148.352 118.486 148.363 118.245 148.363 117.974C148.365 117.412 148.328 116.591 147.768 114.088C147.768 114.088 147.496 112.87 146.921 111.383C146.789 111.043 146.608 110.604 146.177 110.334C146.071 110.268 146.009 110.249 145.476 110.096C145.399 110.074 145.311 110.049 145.212 110.02C144.351 109.773 144.235 109.733 144.093 109.676C144.041 109.655 143.984 109.629 143.923 109.601C143.812 109.741 143.666 109.903 143.478 110.051C143.244 110.237 142.948 110.403 142.585 110.482C142.299 110.544 141.673 110.68 141.194 110.27C141.057 110.153 140.961 110.016 140.895 109.877C140.85 109.782 140.818 109.686 140.795 109.595C140.756 109.437 140.746 109.29 140.745 109.184C140.64 109.215 140.521 109.246 140.391 109.274C140.035 109.351 139.885 109.343 139.483 109.409C139.004 109.489 138.765 109.528 138.549 109.634C138.094 109.855 137.868 110.257 137.673 110.616C137.454 111.019 137.338 111.388 137.14 112.396C136.919 113.517 136.907 113.845 136.748 114.61C136.665 115.012 136.573 115.374 136.487 115.685C136.559 115.78 136.624 115.879 136.664 115.989C136.761 116.262 136.708 116.61 136.654 116.888C136.624 117.048 136.581 117.205 136.524 117.358C136.439 117.587 136.346 117.902 136.084 117.984C135.984 118.016 135.874 118.002 135.776 117.967C135.615 117.91 135.472 117.822 135.343 117.712L135.342 117.717Z" fill="#FFCC0D"/>
<path d="M145.947 113.269C145.857 113.542 145.679 114.087 145.577 114.396C145.479 114.695 145.372 114.994 145.272 115.296" stroke="#2A458A" stroke-width="0.0569077" stroke-miterlimit="10"/>
<path d="M144.156 122.099C144.176 122.264 144.365 122.359 144.514 122.37C144.78 122.39 145.066 122.256 145.278 122.107C145.254 122.177 145.221 122.251 145.179 122.327C145.171 122.34 145.164 122.353 145.157 122.365C145.103 122.455 145.043 122.534 144.979 122.602C145.121 122.854 145.265 123.108 145.408 123.364C145.54 123.602 145.671 123.84 145.801 124.077C145.996 123.909 146.167 123.751 146.316 123.609C146.407 123.521 146.488 123.44 146.56 123.365C146.958 122.956 147.12 122.73 147.165 122.664C147.351 122.401 147.332 122.341 147.623 121.831C147.86 121.417 147.887 121.421 148.053 121.11C148.223 120.79 148.329 120.588 148.411 120.295C148.556 119.78 148.513 119.382 148.503 119.295C148.481 119.113 148.454 118.902 148.337 118.69C148.314 118.648 148.288 118.606 148.256 118.564C148.179 118.46 148.068 118.311 147.872 118.245C147.512 118.122 147.166 118.378 147.101 118.427C146.851 118.612 146.746 118.869 146.701 119.038C146.68 119.119 146.672 119.18 146.669 119.206C146.659 119.29 146.689 119.479 146.746 119.855C146.796 120.186 146.825 120.287 146.84 120.5C146.847 120.603 146.848 120.699 146.847 120.782C146.663 120.853 146.475 120.914 146.283 120.964C146.146 120.998 146.005 121.019 145.869 121.063C145.829 121.075 145.791 121.09 145.757 121.108C145.678 121.146 145.611 121.196 145.539 121.259C145.412 121.37 145.293 121.492 145.164 121.602C145.051 121.698 144.93 121.807 144.785 121.847C144.66 121.881 144.53 121.883 144.402 121.901C144.291 121.917 144.136 121.954 144.152 122.1L144.156 122.099Z" fill="#FBCBA5"/>
<path d="M138.305 111.705C138.158 112.422 137.655 112.989 137.403 113.665C137.114 114.437 137.4 115.234 137.659 115.977C137.917 116.721 137.982 117.488 137.98 118.261" stroke="#2A458A" stroke-width="0.0569077" stroke-miterlimit="10"/>
<path d="M133.787 108.829C134.354 108.681 134.921 108.534 135.488 108.386C135.601 108.357 135.717 108.426 135.744 108.541C135.885 109.129 136.025 109.717 136.166 110.304C136.24 110.367 136.247 110.473 136.25 110.511C136.252 110.536 136.25 110.561 136.246 110.583C136.245 110.594 136.243 110.605 136.24 110.614V110.616C136.24 110.616 136.24 110.619 136.24 110.62C136.256 110.653 136.27 110.681 136.285 110.715C136.292 110.717 136.298 110.722 136.304 110.725C136.312 110.729 136.319 110.733 136.327 110.739C136.334 110.745 136.34 110.751 136.347 110.758C136.409 110.827 136.414 110.941 136.354 111.039C136.351 111.043 136.349 111.046 136.345 111.05C136.441 111.455 136.538 111.859 136.634 112.262C136.649 112.323 136.612 112.384 136.552 112.401C136.14 112.513 135.729 112.624 135.318 112.735C135.314 112.778 135.309 112.823 135.303 112.878C135.301 112.903 135.298 112.927 135.296 112.95L136.646 112.586C136.789 112.547 136.876 112.401 136.841 112.257L135.893 108.293C135.866 108.18 135.751 108.11 135.637 108.14L133.93 108.584C133.823 108.612 133.758 108.722 133.788 108.83L133.787 108.829Z" fill="#281B47"/>
<path d="M136.212 110.695C136.222 110.696 136.24 110.698 136.261 110.706C136.269 110.708 136.277 110.711 136.284 110.715C136.269 110.683 136.255 110.654 136.239 110.62C136.232 110.653 136.221 110.679 136.212 110.695Z" fill="#E60610"/>
<path d="M135.318 112.734C135.729 112.623 136.14 112.512 136.552 112.4C136.612 112.383 136.649 112.322 136.634 112.261C136.537 111.858 136.441 111.454 136.346 111.049C136.219 111.222 136.098 111.34 136.009 111.415C135.885 111.522 135.798 111.571 135.627 111.721C135.522 111.811 135.443 111.891 135.393 111.943C135.383 112.066 135.373 112.191 135.361 112.316C135.344 112.503 135.334 112.589 135.318 112.734Z" fill="#E60610"/>
<path d="M133.97 110.945C133.976 111.181 133.909 111.211 133.884 111.484C133.866 111.685 133.887 111.831 133.922 112.052C133.981 112.431 134.056 112.586 134.129 112.872C134.218 113.223 134.205 113.393 134.244 113.822C134.32 114.658 134.488 115.317 134.558 115.59C134.697 116.13 134.843 116.503 135.052 117.044C135.152 117.304 135.241 117.506 135.341 117.717C135.47 117.826 135.613 117.915 135.774 117.972C135.872 118.007 135.982 118.019 136.082 117.989C136.343 117.907 136.438 117.591 136.521 117.363C136.577 117.21 136.62 117.053 136.652 116.893C136.706 116.614 136.759 116.267 136.662 115.994C136.622 115.882 136.557 115.783 136.485 115.689C136.385 115.562 136.271 115.445 136.177 115.319C136.039 115.136 135.887 114.961 135.761 114.768C135.512 114.387 135.409 114.096 135.376 114.001C135.325 113.852 135.283 113.728 135.263 113.551C135.258 113.496 135.252 113.412 135.295 112.949C135.297 112.926 135.3 112.902 135.302 112.876C135.307 112.822 135.312 112.775 135.317 112.734C135.333 112.589 135.343 112.503 135.36 112.316C135.372 112.19 135.382 112.065 135.392 111.943C135.442 111.891 135.521 111.811 135.626 111.72C135.796 111.572 135.884 111.522 136.008 111.415C136.096 111.34 136.218 111.222 136.344 111.049C136.348 111.045 136.35 111.042 136.353 111.037C136.413 110.939 136.407 110.825 136.345 110.757C136.339 110.75 136.333 110.743 136.325 110.738C136.318 110.733 136.311 110.728 136.303 110.723C136.297 110.72 136.291 110.716 136.284 110.714C136.276 110.71 136.269 110.708 136.261 110.704C136.24 110.697 136.222 110.695 136.212 110.694C136.22 110.677 136.231 110.652 136.239 110.619C136.239 110.618 136.239 110.616 136.239 110.615V110.613C136.241 110.603 136.244 110.594 136.245 110.582C136.25 110.56 136.251 110.535 136.248 110.509C136.246 110.472 136.239 110.366 136.165 110.303C136.158 110.296 136.147 110.289 136.138 110.284C136.068 110.244 135.991 110.261 135.965 110.267C135.976 110.245 136.007 110.173 135.984 110.088C135.947 109.951 135.806 109.909 135.794 109.906C135.657 109.867 135.549 109.954 135.538 109.963C135.532 109.931 135.517 109.886 135.481 109.844C135.385 109.734 135.219 109.752 135.181 109.757C135.068 109.774 135.027 109.849 134.871 109.95C134.632 110.105 134.51 110.184 134.39 110.291C134.327 110.347 134.247 110.426 134.163 110.533C134.106 110.278 134.05 110.023 133.993 109.767C133.879 109.84 133.759 109.95 133.748 110.092C133.739 110.196 133.796 110.241 133.867 110.427C133.876 110.453 133.964 110.689 133.969 110.944L133.97 110.945Z" fill="#FBCBA5"/>
<path d="M133.787 108.829C133.856 109.142 133.926 109.455 133.994 109.768C134.051 110.024 134.107 110.279 134.164 110.534C134.248 110.427 134.328 110.348 134.391 110.293C134.51 110.185 134.633 110.106 134.872 109.951C135.028 109.85 135.069 109.775 135.182 109.758C135.219 109.753 135.385 109.734 135.482 109.846C135.517 109.887 135.533 109.932 135.539 109.964C135.549 109.955 135.657 109.868 135.795 109.907C135.807 109.91 135.949 109.952 135.985 110.089C136.007 110.175 135.976 110.246 135.966 110.268C135.992 110.261 136.069 110.244 136.139 110.285C136.148 110.292 136.159 110.298 136.166 110.304C136.026 109.716 135.885 109.128 135.744 108.541C135.716 108.426 135.6 108.357 135.488 108.386C134.921 108.534 134.354 108.681 133.787 108.829Z" fill="#E60610"/>
<path d="M140.745 109.187C140.745 109.293 140.756 109.44 140.795 109.598C140.817 109.69 140.85 109.786 140.895 109.88C140.961 110.021 141.057 110.158 141.194 110.274C141.673 110.683 142.3 110.548 142.585 110.485C142.948 110.406 143.244 110.241 143.478 110.054C143.664 109.906 143.812 109.744 143.923 109.604C143.772 109.535 143.595 109.442 143.401 109.321C143.377 109.041 143.358 108.752 143.345 108.454C143.329 108.075 143.325 107.712 143.328 107.363C143.287 107.378 143.217 107.403 143.211 107.415C143.198 107.45 143.182 107.487 143.163 107.527C143.163 107.801 143.113 108.174 142.892 108.539C142.564 109.081 142.056 109.283 141.759 109.401C141.453 109.523 141.165 109.574 140.925 109.591C140.941 109.444 140.953 109.294 140.963 109.141C140.963 109.132 140.964 109.123 140.965 109.115C140.901 109.137 140.827 109.162 140.745 109.186V109.187Z" fill="#FBCBA5"/>
<path d="M140.925 109.593C141.165 109.576 141.452 109.525 141.759 109.403C142.055 109.285 142.563 109.083 142.892 108.541C143.113 108.176 143.163 107.802 143.163 107.53C143.084 107.709 142.96 107.933 142.772 108.162C142.643 108.315 142.474 108.517 142.184 108.682C142.037 108.766 141.731 108.936 141.314 108.923C141.236 108.921 141.115 108.917 140.979 108.883C140.976 108.961 140.972 109.037 140.967 109.116C140.967 109.125 140.966 109.134 140.964 109.143C140.954 109.297 140.942 109.446 140.927 109.593H140.925Z" fill="#C68C8B"/>
<path opacity="0.45" d="M63.3308 95.937H19.9882V111.201H63.3308V95.937Z" fill="#B6CAE5"/>
<path d="M62.1526 94.72H18.81V109.984H62.1526V94.72Z" fill="white"/>
<path d="M55.4333 107.058C58.0326 107.058 60.1398 104.951 60.1398 102.352C60.1398 99.7527 58.0326 97.6455 55.4333 97.6455C52.834 97.6455 50.7268 99.7527 50.7268 102.352C50.7268 104.951 52.834 107.058 55.4333 107.058Z" fill="#00FF00"/>
<path d="M60.1282 102.687C60.0386 103.934 59.4717 105.034 58.618 105.817C57.697 106.662 56.444 107.142 55.0992 107.046C53.8431 106.956 52.7365 106.381 51.9514 105.516C51.1168 104.598 50.6446 103.352 50.7405 102.017C50.926 99.4242 53.177 97.4725 55.7695 97.6579C58.362 97.8434 60.3137 100.094 60.1282 102.687Z" fill="#ECF2FE"/>
<path d="M53.6807 103.513C53.764 103.748 53.8746 103.984 54.0632 104.146C54.1865 104.253 54.3288 104.32 54.4785 104.354C54.8378 104.438 55.2436 104.336 55.5555 104.15C55.7968 104.006 56.0023 103.802 56.1636 103.568C56.2447 103.451 56.3164 103.325 56.3743 103.196C56.4049 103.128 56.4323 103.06 56.4555 102.992C56.4766 102.932 56.4945 102.872 56.5113 102.81C56.5946 102.773 56.7052 102.705 56.7822 102.581C56.876 102.431 56.8717 102.28 56.8675 102.179C56.8612 101.988 56.7959 101.843 56.7537 101.766C56.7232 101.754 56.5988 101.712 56.4966 101.775C56.466 101.794 56.4418 101.819 56.4144 101.865C56.3332 102 56.3195 102.151 56.3216 102.257C56.2869 102.112 56.2552 101.925 56.2552 101.707C56.2552 101.68 56.2552 101.653 56.2552 101.628C56.2637 101.34 56.1899 101.054 56.0245 100.818C56.0055 100.791 55.9844 100.764 55.9633 100.735C55.7989 100.518 55.6809 100.362 55.5081 100.295C55.1814 100.166 54.8167 100.41 54.6344 100.511C54.3836 100.649 54.0274 100.758 53.51 100.742C53.491 100.839 53.4752 100.937 53.4615 101.035C53.3487 101.862 53.4046 102.73 53.6807 103.514V103.513Z" fill="#FBCBA5"/>
<path d="M52.823 99.853C52.7882 100.29 53.0137 100.604 53.0748 100.687C53.078 100.692 53.0833 100.696 53.0864 100.701C53.2097 100.864 53.3499 100.968 53.4616 101.033C53.4753 100.935 53.4911 100.837 53.5101 100.74C54.0286 100.757 54.3837 100.647 54.6345 100.508C54.8168 100.408 55.1825 100.164 55.5082 100.292C55.681 100.361 55.799 100.517 55.9634 100.733C55.9845 100.761 56.0045 100.789 56.0245 100.816C56.19 101.052 56.2648 101.338 56.2553 101.626C56.2553 101.652 56.2543 101.678 56.2553 101.705C56.2553 101.923 56.287 102.11 56.3217 102.255C56.3196 102.15 56.3333 101.998 56.4145 101.863C56.4408 101.817 56.4661 101.792 56.4967 101.773C56.5989 101.71 56.7232 101.752 56.7538 101.764C56.8076 101.652 57.1564 100.901 56.7907 100.197C56.6748 99.9721 56.5188 99.8161 56.3892 99.7128C56.2733 99.4546 56.0772 99.1395 55.7463 99.032C55.349 98.9035 55.1572 99.2049 54.5502 99.2017C53.8747 99.1985 53.6692 98.8202 53.3014 98.9888C52.8841 99.1785 52.8261 99.8108 52.8219 99.8509L52.823 99.853Z" fill="#1A1943"/>
<path d="M53.4911 105.051C53.5511 105.588 53.8283 106.059 54.2519 106.314C55.0792 106.811 56.0329 106.224 56.1794 106.129C56.6347 105.836 56.8802 105.428 57.0099 105.124C56.7443 104.985 56.5219 104.826 56.3386 104.672C56.3322 104.447 56.3301 104.212 56.3354 103.969C56.3417 103.702 56.3544 103.444 56.3744 103.198C56.3154 103.328 56.2448 103.453 56.1636 103.57C55.9939 104.116 55.6082 104.546 55.1066 104.714C54.86 104.798 54.6282 104.803 54.4416 104.782C54.4448 104.755 54.449 104.727 54.4511 104.699C54.4016 104.718 54.3468 104.738 54.2899 104.759C54.1497 104.81 53.9895 104.869 53.8135 104.934C53.6934 104.978 53.5859 105.017 53.489 105.052L53.4911 105.051Z" fill="#FBCBA5"/>
<path d="M58.3345 105.63C57.9299 105.405 57.7644 105.457 57.2839 105.254C57.189 105.213 57.0973 105.17 57.0109 105.124C57.0025 105.143 56.9941 105.163 56.9856 105.182C56.9772 105.202 56.9667 105.222 56.9572 105.242C56.9371 105.283 56.915 105.326 56.8908 105.368C56.8813 105.384 56.8729 105.399 56.8623 105.416C56.8528 105.432 56.8423 105.449 56.8328 105.465C56.8223 105.481 56.8117 105.497 56.8012 105.514C56.7907 105.531 56.7791 105.547 56.7675 105.564C56.7517 105.586 56.7359 105.608 56.719 105.63C56.6937 105.663 56.6674 105.697 56.6389 105.729C56.6199 105.75 56.601 105.772 56.5809 105.795C56.5504 105.827 56.5188 105.859 56.485 105.89C56.4682 105.906 56.4513 105.922 56.4334 105.938C56.4281 105.943 56.4218 105.948 56.4165 105.954C56.4102 105.959 56.405 105.964 56.3986 105.969C56.3881 105.979 56.3765 105.988 56.3649 105.997C56.3586 106.003 56.3512 106.008 56.3438 106.014C56.3333 106.022 56.3228 106.031 56.3112 106.039C56.3091 106.041 56.3059 106.042 56.3038 106.044C56.3017 106.045 56.3006 106.046 56.2985 106.047C56.289 106.055 56.2795 106.061 56.2701 106.069C56.269 106.069 56.2669 106.071 56.2658 106.072C56.2384 106.092 56.211 106.111 56.1826 106.129C56.0361 106.222 55.0813 106.81 54.2541 106.314C54.2256 106.297 54.1982 106.279 54.1719 106.26C54.1645 106.256 54.1582 106.251 54.1508 106.246C54.1445 106.24 54.1381 106.236 54.1318 106.232C54.1181 106.222 54.1055 106.212 54.0928 106.201C54.0802 106.191 54.0675 106.18 54.0549 106.17C54.0422 106.159 54.0306 106.148 54.019 106.137C54.0075 106.127 53.9959 106.116 53.9853 106.104C53.9843 106.103 53.9822 106.102 53.9811 106.1C53.9706 106.09 53.96 106.079 53.9495 106.068C53.9379 106.056 53.9263 106.043 53.9158 106.032C53.9042 106.019 53.8936 106.006 53.8831 105.994C53.8747 105.984 53.8662 105.974 53.8589 105.964C53.8578 105.964 53.8568 105.962 53.8568 105.961C53.8568 105.96 53.8557 105.959 53.8546 105.959C53.8483 105.951 53.842 105.943 53.8357 105.935C53.8294 105.926 53.823 105.919 53.8178 105.91C53.8178 105.909 53.8157 105.908 53.8146 105.907C53.803 105.892 53.7925 105.877 53.7819 105.861C53.7682 105.841 53.7556 105.82 53.7419 105.799C53.7313 105.782 53.7219 105.765 53.7124 105.748C53.6966 105.721 53.6818 105.692 53.6681 105.664C53.6544 105.635 53.6407 105.606 53.6281 105.576C53.6217 105.562 53.6154 105.547 53.6102 105.531C53.6091 105.528 53.608 105.526 53.607 105.523C53.6028 105.512 53.5986 105.502 53.5954 105.491C53.5954 105.489 53.5943 105.487 53.5933 105.485C53.588 105.47 53.5828 105.455 53.5775 105.44C53.5722 105.425 53.5669 105.41 53.5627 105.394C53.5575 105.378 53.5532 105.362 53.549 105.347C53.5395 105.315 53.5322 105.283 53.5248 105.251C53.5206 105.234 53.5174 105.218 53.5153 105.201C53.5121 105.184 53.509 105.169 53.5069 105.152C53.5037 105.135 53.5016 105.118 53.4995 105.101C53.4995 105.097 53.4984 105.093 53.4974 105.088C53.4953 105.076 53.4942 105.063 53.4921 105.051C53.1285 105.183 52.9167 105.259 52.7565 105.31C52.3413 105.44 52.1137 105.487 51.9525 105.516C52.7376 106.38 53.8431 106.956 55.1003 107.045C56.445 107.141 57.6991 106.662 58.6191 105.817C58.4863 105.717 58.382 105.655 58.3356 105.63H58.3345Z" fill="#FFCC0D"/>
<path d="M54.4427 104.781C54.6292 104.802 54.8611 104.797 55.1077 104.714C55.6093 104.545 55.995 104.115 56.1647 103.569C56.0034 103.803 55.7979 104.007 55.5566 104.151C55.2447 104.337 54.8389 104.439 54.4796 104.355C54.4754 104.454 54.468 104.557 54.4564 104.662C54.4564 104.674 54.4543 104.685 54.4522 104.697C54.449 104.725 54.4458 104.753 54.4427 104.78V104.781Z" fill="#C68C8B"/>
<path d="M48.0542 98.3535H20.8228V99.7383H48.0542V98.3535Z" fill="#3B82F4"/>
<path d="M48.0542 101.659H20.8228V103.044H48.0542V101.659Z" fill="#ECF2FE"/>
<path d="M48.0542 104.965H20.8228V106.35H48.0542V104.965Z" fill="#ECF2FE"/>
<path opacity="0.45" d="M192.882 98.1458H149.54V113.41H192.882V98.1458Z" fill="#B6CAE5"/>
<path d="M191.704 96.9285H148.361V112.192H191.704V96.9285Z" fill="white"/>
<path d="M184.986 109.267C187.585 109.267 189.692 107.16 189.692 104.56C189.692 101.961 187.585 99.854 184.986 99.854C182.386 99.854 180.279 101.961 180.279 104.56C180.279 107.16 182.386 109.267 184.986 109.267Z" fill="#00FF00"/>
<path d="M189.68 104.896C189.59 106.142 189.023 107.243 188.169 108.026C187.248 108.871 185.995 109.35 184.651 109.254C183.394 109.165 182.288 108.589 181.503 107.725C180.668 106.806 180.196 105.561 180.292 104.225C180.477 101.633 182.728 99.6812 185.321 99.8667C187.913 100.052 189.865 102.303 189.68 104.896Z" fill="#ECF2FE"/>
<path d="M183.232 105.722C183.315 105.957 183.426 106.193 183.615 106.355C183.738 106.462 183.88 106.529 184.03 106.563C184.389 106.647 184.795 106.545 185.107 106.358C185.348 106.215 185.554 106.011 185.715 105.777C185.796 105.66 185.868 105.534 185.926 105.405C185.956 105.337 185.984 105.269 186.007 105.201C186.028 105.141 186.046 105.081 186.063 105.019C186.146 104.982 186.257 104.913 186.334 104.79C186.427 104.639 186.423 104.489 186.419 104.388C186.413 104.197 186.347 104.051 186.305 103.974C186.275 103.963 186.15 103.921 186.048 103.984C186.017 104.003 185.993 104.028 185.966 104.074C185.885 104.208 185.871 104.36 185.873 104.466C185.838 104.321 185.807 104.134 185.807 103.915C185.807 103.889 185.807 103.862 185.807 103.836C185.815 103.549 185.741 103.263 185.576 103.027C185.557 103 185.536 102.972 185.515 102.944C185.35 102.727 185.232 102.571 185.06 102.503C184.733 102.375 184.368 102.619 184.186 102.719C183.935 102.857 183.579 102.967 183.061 102.951C183.042 103.048 183.027 103.146 183.013 103.244C182.9 104.07 182.956 104.939 183.232 105.723V105.722Z" fill="#FBCBA5"/>
<path d="M182.374 102.062C182.34 102.499 182.565 102.813 182.626 102.896C182.629 102.901 182.635 102.905 182.638 102.91C182.761 103.073 182.901 103.177 183.013 103.242C183.027 103.144 183.042 103.046 183.061 102.949C183.58 102.966 183.935 102.856 184.186 102.717C184.368 102.617 184.734 102.373 185.059 102.501C185.232 102.57 185.35 102.726 185.515 102.942C185.536 102.97 185.556 102.998 185.576 103.025C185.741 103.261 185.816 103.547 185.807 103.835C185.807 103.861 185.806 103.887 185.807 103.914C185.807 104.132 185.838 104.319 185.873 104.464C185.871 104.359 185.885 104.207 185.966 104.072C185.992 104.026 186.017 104.001 186.048 103.982C186.15 103.919 186.275 103.961 186.305 103.973C186.359 103.861 186.708 103.109 186.342 102.406C186.226 102.181 186.07 102.025 185.941 101.922C185.825 101.664 185.629 101.349 185.298 101.241C184.9 101.112 184.709 101.414 184.102 101.411C183.426 101.408 183.221 101.029 182.853 101.198C182.435 101.388 182.377 102.02 182.373 102.06L182.374 102.062Z" fill="#1A1943"/>
<path d="M183.042 107.259C183.103 107.797 183.38 108.268 183.803 108.523C184.631 109.019 185.584 108.432 185.731 108.337C186.186 108.045 186.432 107.637 186.561 107.333C186.296 107.194 186.073 107.035 185.89 106.881C185.884 106.656 185.882 106.421 185.887 106.178C185.893 105.91 185.906 105.652 185.926 105.407C185.867 105.536 185.796 105.662 185.715 105.779C185.545 106.325 185.16 106.755 184.658 106.923C184.411 107.006 184.18 107.012 183.993 106.991C183.996 106.963 184 106.936 184.003 106.907C183.953 106.926 183.898 106.946 183.841 106.967C183.701 107.019 183.541 107.078 183.365 107.142C183.245 107.187 183.137 107.226 183.04 107.26L183.042 107.259Z" fill="#FBCBA5"/>
<path d="M187.886 107.839C187.481 107.614 187.316 107.666 186.835 107.463C186.74 107.422 186.649 107.379 186.562 107.333C186.554 107.352 186.545 107.372 186.537 107.391C186.529 107.411 186.518 107.431 186.508 107.451C186.488 107.492 186.466 107.535 186.442 107.577C186.433 107.593 186.424 107.608 186.414 107.625C186.404 107.641 186.394 107.658 186.384 107.674C186.374 107.689 186.363 107.706 186.353 107.723C186.342 107.74 186.33 107.756 186.319 107.773C186.303 107.795 186.287 107.817 186.27 107.839C186.245 107.872 186.219 107.906 186.19 107.938C186.171 107.959 186.152 107.981 186.132 108.004C186.102 108.036 186.07 108.068 186.036 108.099C186.02 108.115 186.003 108.131 185.985 108.147C185.979 108.152 185.973 108.157 185.968 108.163C185.962 108.168 185.956 108.173 185.95 108.178C185.939 108.188 185.928 108.197 185.916 108.206C185.91 108.212 185.903 108.217 185.895 108.223C185.885 108.231 185.874 108.24 185.862 108.248C185.86 108.25 185.857 108.251 185.855 108.253C185.853 108.254 185.852 108.255 185.85 108.256C185.84 108.264 185.831 108.27 185.821 108.278C185.82 108.278 185.818 108.28 185.817 108.281C185.79 108.301 185.762 108.32 185.734 108.338C185.587 108.431 184.633 109.019 183.805 108.523C183.777 108.506 183.75 108.488 183.723 108.469C183.716 108.465 183.709 108.46 183.702 108.455C183.696 108.449 183.689 108.445 183.683 108.441C183.669 108.431 183.657 108.421 183.644 108.41C183.631 108.4 183.619 108.389 183.606 108.379C183.594 108.368 183.582 108.357 183.57 108.346C183.559 108.335 183.547 108.325 183.537 108.313C183.536 108.312 183.533 108.311 183.532 108.309C183.522 108.299 183.511 108.288 183.501 108.276C183.489 108.265 183.478 108.252 183.467 108.241C183.456 108.228 183.445 108.215 183.434 108.203C183.426 108.193 183.418 108.183 183.41 108.173C183.409 108.173 183.408 108.171 183.408 108.17C183.408 108.169 183.407 108.168 183.406 108.168C183.4 108.16 183.393 108.152 183.387 108.144C183.381 108.135 183.374 108.128 183.369 108.119C183.369 108.118 183.367 108.117 183.366 108.116C183.354 108.1 183.344 108.086 183.333 108.07C183.32 108.05 183.307 108.029 183.293 108.008C183.283 107.991 183.273 107.974 183.264 107.957C183.248 107.93 183.233 107.901 183.219 107.873C183.206 107.844 183.192 107.815 183.179 107.785C183.173 107.771 183.167 107.756 183.161 107.74C183.16 107.737 183.159 107.735 183.158 107.732C183.154 107.721 183.15 107.711 183.147 107.7C183.147 107.698 183.146 107.696 183.145 107.694C183.139 107.679 183.134 107.664 183.129 107.649C183.124 107.634 183.118 107.619 183.114 107.603C183.109 107.587 183.105 107.571 183.1 107.556C183.091 107.524 183.083 107.492 183.076 107.46C183.072 107.443 183.069 107.427 183.067 107.41C183.063 107.393 183.06 107.378 183.058 107.361C183.055 107.344 183.053 107.327 183.051 107.31C183.051 107.306 183.05 107.302 183.049 107.297C183.047 107.285 183.046 107.272 183.043 107.26C182.68 107.392 182.468 107.468 182.308 107.519C181.893 107.649 181.665 107.696 181.504 107.725C182.289 108.589 183.394 109.165 184.652 109.254C185.996 109.35 187.25 108.871 188.17 108.026C188.038 107.926 187.933 107.864 187.887 107.839H187.886Z" fill="#FFCC0D"/>
<path d="M183.994 106.99C184.181 107.011 184.412 107.006 184.659 106.922C185.161 106.754 185.546 106.324 185.716 105.778C185.555 106.012 185.349 106.216 185.108 106.36C184.796 106.546 184.39 106.647 184.031 106.564C184.027 106.663 184.019 106.765 184.008 106.871C184.008 106.882 184.006 106.894 184.004 106.905C184 106.934 183.997 106.961 183.994 106.989V106.99Z" fill="#C68C8B"/>
<path d="M177.606 100.562H150.374V101.947H177.606V100.562Z" fill="#3B82F4"/>
<path d="M177.606 103.868H150.374V105.253H177.606V103.868Z" fill="#ECF2FE"/>
<path d="M177.606 107.173H150.374V108.558H177.606V107.173Z" fill="#ECF2FE"/>
<path d="M66.3721 107.259C66.017 107.187 65.665 107.102 65.3183 107.009" stroke="#3B82F4" stroke-width="0.471069" stroke-miterlimit="10"/>
<path d="M63.2833 106.323C55.5808 103.191 50.7099 94.8789 51.397 86.4976C51.7406 82.3023 53.2855 78.0089 56.4913 75.153C60.2799 71.7775 65.9401 71.2285 70.6476 72.8156C74.531 74.1244 77.7484 76.8391 80.9574 79.3884C84.6216 82.2991 88.4977 84.7936 93.124 85.82C102.295 87.8561 111.322 84.039 117.89 77.6759C118.918 76.6811 119.87 75.6146 120.777 74.5101C123.074 71.7143 124.599 68.9564 125.614 66.6948" stroke="#3B82F4" stroke-width="0.471069" stroke-miterlimit="10"/>
<path d="M126.037 65.7073C126.182 65.3554 126.314 65.0192 126.434 64.7009" stroke="#3B82F4" stroke-width="0.471069" stroke-miterlimit="10"/>
<path d="M138.458 46.4734L127.105 59.6286L127.712 63.9514L125.469 59.1048L138.458 46.4734Z" fill="#3B82F4"/>
<path d="M138.458 46.4734L125.469 59.1048L120.899 57.0403L138.458 46.4734Z" fill="#5B97EF"/>
<path d="M138.458 46.4734L133.79 62.2084L128.82 60.2904L127.105 59.6285L138.458 46.4734Z" fill="#5B97EF"/>
<path d="M128.82 60.2907L127.712 63.9518L127.105 59.6289L128.82 60.2907Z" fill="#9DBBFB"/>
<path opacity="0.45" d="M167.771 136.293C171.879 134.591 173.83 129.881 172.128 125.773C170.426 121.665 165.717 119.714 161.608 121.416C157.5 123.117 155.549 127.827 157.251 131.935C158.953 136.044 163.663 137.994 167.771 136.293Z" fill="#B6CAE5"/>
<path d="M163.872 135.8C168.319 135.8 171.923 132.195 171.923 127.748C171.923 123.302 168.319 119.697 163.872 119.697C159.425 119.697 155.821 123.302 155.821 127.748C155.821 132.195 159.425 135.8 163.872 135.8Z" fill="#B6CAE5"/>
<path d="M168.615 127.592C168.615 129.312 167.958 130.364 166.815 130.364C166.168 130.364 165.723 130.021 165.601 129.403C165.197 130.03 164.529 130.364 163.679 130.364C162.243 130.364 161.201 129.272 161.201 127.764C161.201 126.256 162.244 125.185 163.679 125.185C164.458 125.185 165.115 125.478 165.53 126.045V125.227H166.41V128.868C166.41 129.404 166.673 129.596 166.986 129.596C167.582 129.596 167.927 128.868 167.927 127.603C167.927 125.337 166.288 123.821 163.901 123.821C161.514 123.821 159.866 125.439 159.866 127.735C159.866 130.03 161.464 131.669 163.861 131.669C164.478 131.669 165.217 131.537 165.813 131.224L166.035 131.871C165.419 132.185 164.579 132.346 163.861 132.346C161.05 132.346 159.127 130.415 159.127 127.735C159.127 125.055 161.07 123.153 163.901 123.153C166.733 123.153 168.614 124.974 168.614 127.592H168.615ZM165.551 127.764C165.551 126.642 164.802 125.964 163.821 125.964C162.84 125.964 162.101 126.662 162.101 127.764C162.101 128.867 162.81 129.575 163.821 129.575C164.833 129.575 165.551 128.887 165.551 127.764Z" fill="white"/>
<defs>
<filter id="filter0_d_83_855" x="0" y="0" width="210" height="210" filterUnits="userSpaceOnUse" color-interpolation-filters="sRGB">
<feFlood flood-opacity="0" result="BackgroundImageFix"/>
<feColorMatrix in="SourceAlpha" type="matrix" values="0 0 0 0 0 0 0 0 0 0 0 0 0 0 0 0 0 0 127 0" result="hardAlpha"/>
<feOffset/>
<feGaussianBlur stdDeviation="10"/>
<feComposite in2="hardAlpha" operator="out"/>
<feColorMatrix type="matrix" values="0 0 0 0 0 0 0 0 0 0 0 0 0 0 0 0 0 0 0.05 0"/>
<feBlend mode="normal" in2="BackgroundImageFix" result="effect1_dropShadow_83_855"/>
<feBlend mode="normal" in="SourceGraphic" in2="effect1_dropShadow_83_855" result="shape"/>
</filter>
</defs>
</svg>
