<svg width="285" height="285" viewBox="0 0 285 285" fill="none" xmlns="http://www.w3.org/2000/svg">
<g opacity="0.9" clip-path="url(#clip0_4005_47)">
<path d="M80.4686 185.135H68.3182C66.0409 185.135 64.1948 186.986 64.1948 189.27V207.661C64.1948 209.945 66.0409 211.796 68.3182 211.796H80.4686C82.7459 211.796 84.592 209.945 84.592 207.661V189.27C84.592 186.986 82.7459 185.135 80.4686 185.135Z" fill="url(#paint0_linear_4005_47)" stroke="white" stroke-width="6" stroke-miterlimit="10" stroke-linecap="round"/>
<path d="M121.213 145.418H109.063C106.785 145.418 104.939 147.27 104.939 149.553V207.661C104.939 209.945 106.785 211.796 109.063 211.796H121.213C123.49 211.796 125.336 209.945 125.336 207.661V149.553C125.336 147.27 123.49 145.418 121.213 145.418Z" fill="url(#paint1_linear_4005_47)" stroke="white" stroke-width="6" stroke-miterlimit="10" stroke-linecap="round"/>
<path d="M161.947 164.731H149.797C147.52 164.731 145.674 166.582 145.674 168.866V207.662C145.674 209.945 147.52 211.796 149.797 211.796H161.947C164.225 211.796 166.071 209.945 166.071 207.662V168.866C166.071 166.582 164.225 164.731 161.947 164.731Z" fill="url(#paint2_linear_4005_47)" stroke="white" stroke-width="6" stroke-miterlimit="10" stroke-linecap="round"/>
<path d="M202.692 117.666H190.541C188.264 117.666 186.418 119.517 186.418 121.801V207.672C186.418 209.955 188.264 211.806 190.541 211.806H202.692C204.969 211.806 206.815 209.955 206.815 207.672V121.801C206.815 119.517 204.969 117.666 202.692 117.666Z" fill="url(#paint3_linear_4005_47)" stroke="white" stroke-width="6" stroke-miterlimit="10" stroke-linecap="round"/>
<path d="M161.818 122.552L190.771 88.9421" stroke="white" stroke-width="6" stroke-miterlimit="10" stroke-linecap="round"/>
<path d="M123.3 114.932L147.621 125.775" stroke="white" stroke-width="6" stroke-miterlimit="10" stroke-linecap="round"/>
<path d="M81.2474 149.243L109.182 117.966" stroke="white" stroke-width="6" stroke-miterlimit="10" stroke-linecap="round"/>
<path d="M121.449 117.633C124.938 114.134 124.938 108.46 121.449 104.961C117.959 101.462 112.302 101.462 108.812 104.961C105.322 108.46 105.322 114.134 108.812 117.633C112.302 121.132 117.959 121.132 121.449 117.633Z" fill="url(#paint4_linear_4005_47)" stroke="white" stroke-width="6" stroke-miterlimit="10" stroke-linecap="round"/>
<path d="M75.6564 165.182C80.5914 165.182 84.592 161.17 84.592 156.221C84.592 151.272 80.5914 147.26 75.6564 147.26C70.7214 147.26 66.7208 151.272 66.7208 156.221C66.7208 161.17 70.7214 165.182 75.6564 165.182Z" fill="url(#paint5_linear_4005_47)" stroke="white" stroke-width="6" stroke-miterlimit="10" stroke-linecap="round"/>
<path d="M164.559 131.276C165.693 126.459 162.718 121.633 157.915 120.497C153.112 119.36 148.299 122.343 147.166 127.159C146.032 131.976 149.007 136.802 153.81 137.938C158.613 139.075 163.426 136.092 164.559 131.276Z" fill="url(#paint6_linear_4005_47)" stroke="white" stroke-width="6" stroke-miterlimit="10" stroke-linecap="round"/>
<path d="M205.547 82.1641C205.547 87.1099 201.544 91.1246 196.612 91.1246C191.68 91.1246 187.676 87.1099 187.676 82.1641C187.676 77.2183 191.68 73.2036 196.612 73.2036C201.544 73.2036 205.547 77.2183 205.547 82.1641Z" fill="url(#paint7_linear_4005_47)" stroke="white" stroke-width="6" stroke-miterlimit="10" stroke-linecap="round"/>
</g>
<circle cx="142.5" cy="142.5" r="141.5" stroke="url(#paint8_linear_4005_47)" stroke-width="2"/>
<defs>
<linearGradient id="paint0_linear_4005_47" x1="74.3934" y1="185.135" x2="74.3934" y2="211.796" gradientUnits="userSpaceOnUse">
<stop stop-color="white"/>
<stop offset="1" stop-color="white" stop-opacity="0"/>
</linearGradient>
<linearGradient id="paint1_linear_4005_47" x1="115.138" y1="145.418" x2="115.138" y2="211.796" gradientUnits="userSpaceOnUse">
<stop stop-color="white"/>
<stop offset="1" stop-color="white" stop-opacity="0"/>
</linearGradient>
<linearGradient id="paint2_linear_4005_47" x1="155.872" y1="164.731" x2="155.872" y2="211.796" gradientUnits="userSpaceOnUse">
<stop stop-color="white"/>
<stop offset="1" stop-color="white" stop-opacity="0"/>
</linearGradient>
<linearGradient id="paint3_linear_4005_47" x1="196.617" y1="117.666" x2="196.617" y2="211.806" gradientUnits="userSpaceOnUse">
<stop stop-color="white"/>
<stop offset="1" stop-color="white" stop-opacity="0"/>
</linearGradient>
<linearGradient id="paint4_linear_4005_47" x1="108.812" y1="104.961" x2="121.484" y2="117.598" gradientUnits="userSpaceOnUse">
<stop stop-color="white"/>
<stop offset="1" stop-color="white" stop-opacity="0"/>
</linearGradient>
<linearGradient id="paint5_linear_4005_47" x1="75.6564" y1="147.26" x2="75.6564" y2="165.182" gradientUnits="userSpaceOnUse">
<stop stop-color="white"/>
<stop offset="1" stop-color="white" stop-opacity="0"/>
</linearGradient>
<linearGradient id="paint6_linear_4005_47" x1="147.166" y1="127.159" x2="164.564" y2="131.254" gradientUnits="userSpaceOnUse">
<stop stop-color="white"/>
<stop offset="1" stop-color="white" stop-opacity="0"/>
</linearGradient>
<linearGradient id="paint7_linear_4005_47" x1="196.612" y1="73.2036" x2="196.612" y2="91.1246" gradientUnits="userSpaceOnUse">
<stop stop-color="white"/>
<stop offset="1" stop-color="white" stop-opacity="0"/>
</linearGradient>
<linearGradient id="paint8_linear_4005_47" x1="238.5" y1="42" x2="43" y2="237.5" gradientUnits="userSpaceOnUse">
<stop stop-color="white" stop-opacity="0"/>
<stop offset="0.199905" stop-color="white"/>
<stop offset="0.813618" stop-color="white"/>
<stop offset="1" stop-color="white" stop-opacity="0"/>
</linearGradient>
<clipPath id="clip0_4005_47">
<rect width="149" height="145" fill="white" transform="translate(61 70)"/>
</clipPath>
</defs>
</svg>
