<svg width="210" height="210" viewBox="0 0 210 210" fill="none" xmlns="http://www.w3.org/2000/svg">
<circle cx="105" cy="105" r="100" fill="#E5F0EF"/>
<g filter="url(#filter0_d_83_867)">
<circle cx="105" cy="105" r="85" fill="white"/>
</g>
<g clip-path="url(#clip0_83_867)">
<path opacity="0.3" d="M183.775 108.858H182.144C176.781 108.858 172.433 104.371 172.433 98.8366C172.433 94.2188 168.806 90.4743 164.33 90.4743H153.599C156.287 88.8234 158.108 85.634 158.108 81.9706C158.108 76.612 154.212 72.2678 149.407 72.2678H117.387C113.284 72.2678 109.363 70.4801 106.744 67.3207C102.285 61.9398 95.5515 58.5134 88.018 58.5134C80.4845 58.5134 73.7508 61.9409 69.292 67.3207C66.6744 70.4801 62.753 72.2678 58.6492 72.2678H48.656C44.3386 72.2678 40.8377 76.1703 40.8377 80.985C40.8377 86.7553 36.6426 91.4321 31.4686 91.4321H29.8956C24.5914 91.4321 20.2918 96.2268 20.2918 102.142C20.2918 108.057 24.5914 112.851 29.8956 112.851C35.1998 112.851 39.2647 117.529 39.2647 123.298V125.29C39.2647 128 40.3738 130.421 42.1137 132.02H25.8585C20.9659 132.02 17 135.986 17 140.878C17 145.771 20.9659 149.737 25.8585 149.737H87.7288C88.0202 149.737 88.3083 149.722 88.5931 149.695H165.961C170.436 149.695 174.064 145.951 174.064 141.332V139.422C174.064 133.888 178.412 129.401 183.775 129.401C189.273 129.401 193.729 124.802 193.729 119.129C193.729 113.455 189.273 108.856 183.775 108.856V108.858Z" fill="#9BC1F9"/>
<path d="M93.7683 77.0279L95.4469 76.0111L94.9719 74.7563L94.4969 73.5026L92.5657 73.8541C92.1107 73.1766 91.5545 72.5915 90.9259 72.1098L91.3943 70.2041L90.1706 69.6535L88.9469 69.1017L87.8311 70.7159C87.0535 70.5635 86.2458 70.5356 85.4382 70.6436L84.4214 68.9637L83.1666 69.4399L81.9128 69.9149L82.2644 71.8461C81.5869 72.3011 81.0017 72.8573 80.52 73.4859L78.6144 73.0175L77.5131 75.4649L79.1261 76.5818C78.9748 77.3594 78.9459 78.166 79.0538 78.9747L77.3751 79.9904L77.8513 81.2452L78.3263 82.5001L80.2564 82.1486C80.7125 82.8249 81.2676 83.4112 81.8973 83.8929L81.4289 85.7985L82.6526 86.3492L83.8752 86.8999L84.9921 85.2868C85.7697 85.4392 86.5762 85.467 87.385 85.3591L88.4018 87.0378L89.6555 86.5628L90.9104 86.0866L90.5588 84.1565C91.2352 83.7015 91.8215 83.1453 92.302 82.5157L94.2077 82.984L94.7583 81.7603L95.3101 80.5377L93.6959 79.4208C93.8484 78.6432 93.8762 77.8356 93.7683 77.0279ZM88.1949 82.7081C85.5962 83.6938 82.6893 82.3844 81.7048 79.7846C80.7192 77.1848 82.0285 74.2791 84.6272 73.2945C87.227 72.3089 90.1328 73.6171 91.1184 76.2169C92.1029 78.8168 90.7947 81.7236 88.1949 82.7081Z" fill="white"/>
<g style="mix-blend-mode:multiply">
<path d="M178.092 128.971C177.637 128.294 177.081 127.708 176.453 127.226L176.921 125.321L175.697 124.77L174.474 124.219L173.357 125.834C172.579 125.681 171.772 125.653 170.964 125.761L169.947 124.083L168.692 124.558L167.437 125.033L167.789 126.964C167.112 127.419 166.526 127.975 166.046 128.605L164.14 128.136L163.589 129.36L163.039 130.584L164.652 131.701C164.499 132.478 164.471 133.286 164.579 134.093L162.901 135.11L163.376 136.365L163.851 137.62L165.782 137.268C166.237 137.945 166.793 138.531 167.422 139.012L166.953 140.917L168.177 141.468L169.401 142.019L170.518 140.404C171.295 140.557 172.102 140.585 172.91 140.477L173.927 142.155L175.182 141.68L176.437 141.205L176.085 139.274C176.762 138.819 177.348 138.263 177.829 137.633L179.734 138.102L180.285 136.878L180.836 135.654L179.223 134.537C179.375 133.76 179.403 132.952 179.295 132.144L180.974 131.128L180.499 129.873L180.024 128.618L178.092 128.97V128.971ZM173.723 137.825C171.123 138.81 168.217 137.501 167.233 134.901C166.247 132.301 167.556 129.396 170.155 128.41C172.755 127.424 175.66 128.734 176.645 131.333C177.631 133.933 176.321 136.839 173.723 137.825Z" fill="#92BFF8"/>
</g>
<path opacity="0.35" d="M127.337 57.055C127.216 56.9827 127.086 56.9215 126.946 56.8737C126.779 56.8169 126.615 56.7602 126.451 56.7046C126.39 56.6834 126.329 56.6634 126.267 56.6434C126.168 56.61 126.068 56.5766 125.97 56.5433C125.869 56.5099 125.769 56.4765 125.669 56.4431C125.612 56.4242 125.556 56.4053 125.499 56.3864C125.374 56.3452 125.251 56.3052 125.127 56.2651C125.098 56.2551 125.068 56.2462 125.038 56.2362C124.894 56.1895 124.751 56.1439 124.609 56.0983C124.602 56.096 124.595 56.0938 124.589 56.0916C115.466 53.1859 111.064 53.3672 101.748 56.8525C101.034 57.1195 100.572 57.738 100.572 58.4189V73.5382C100.572 76.632 102.04 79.5288 104.502 81.292L113.384 86.9845C113.68 87.1736 114.028 87.2681 114.376 87.2681C114.568 87.2681 114.759 87.2381 114.942 87.1814C115.092 87.1346 115.236 87.069 115.37 86.9845L124.252 81.292C126.712 79.5288 128.182 76.632 128.182 73.5382V58.4611C128.182 57.8915 127.858 57.3676 127.338 57.055H127.337Z" fill="#92BFF8"/>
<path d="M126.383 54.9914C126.263 54.9191 126.133 54.8579 125.993 54.81C125.826 54.7533 125.661 54.6966 125.498 54.6409C125.436 54.6198 125.375 54.5998 125.314 54.5798C125.215 54.5464 125.115 54.513 125.017 54.4796C124.918 54.4463 124.82 54.414 124.721 54.3817C124.662 54.3628 124.603 54.3428 124.545 54.3239C124.416 54.2816 124.288 54.2394 124.162 54.1982C124.137 54.1904 124.112 54.1815 124.087 54.1737C123.941 54.127 123.797 54.0803 123.654 54.0347C123.649 54.0324 123.642 54.0313 123.637 54.0291C114.512 51.1234 110.111 51.3047 100.795 54.79C100.08 55.057 99.6187 55.6755 99.6187 56.3564V71.4757C99.6187 74.5695 101.087 77.4663 103.549 79.2295L112.431 84.922C112.727 85.1111 113.075 85.2056 113.423 85.2056C113.618 85.2056 113.812 85.1745 113.998 85.1155C114.145 85.0688 114.285 85.0054 114.417 84.922L123.298 79.2295C125.759 77.4663 127.229 74.5695 127.229 71.4757V56.3975C127.229 55.8279 126.905 55.304 126.384 54.9914H126.383Z" fill="#1D3B77"/>
<path d="M125.596 56.3008C125.567 56.283 125.533 56.2674 125.498 56.2563C125.333 56.1996 125.17 56.1439 125.008 56.0894L124.533 55.9303L124.242 55.8336C124.242 55.8336 123.815 55.6934 123.691 55.6533L123.173 55.4865C118.807 54.097 115.873 53.5297 113.042 53.5297C109.794 53.5297 106.51 54.285 101.33 56.2229C101.195 56.273 101.151 56.3464 101.146 56.3586V71.478C101.146 74.0656 102.364 76.4885 104.407 77.967L113.254 83.6371C113.295 83.6638 113.358 83.6794 113.421 83.6794C113.458 83.6794 113.494 83.6738 113.531 83.6616C113.564 83.6505 113.583 83.6405 113.589 83.6371L122.435 77.9681C124.478 76.4896 125.696 74.0667 125.696 71.4791V56.4031C125.694 56.3931 125.668 56.3464 125.592 56.3008H125.596ZM124.808 71.4769C124.808 73.7686 123.735 75.9178 121.936 77.2294L113.424 82.6849L104.912 77.2294C103.113 75.9167 102.039 73.7686 102.039 71.4769V56.9093C106.883 55.1205 109.993 54.4196 113.043 54.4196C115.775 54.4196 118.632 54.9747 122.904 56.3342L123.42 56.4999C123.54 56.5389 123.965 56.679 123.965 56.679L124.254 56.7747C124.254 56.7747 124.781 56.9516 124.809 56.9616V71.4758L124.808 71.4769Z" fill="#92BFF8"/>
<path d="M118.712 64.7865H117.563C117.596 64.5985 117.613 64.4071 117.613 64.2113V63.8186C117.613 62.0076 116.139 60.5336 114.327 60.5336H112.307C110.496 60.5336 109.022 62.0076 109.022 63.8186V64.2113C109.022 64.4082 109.039 64.5996 109.072 64.7865H107.796C107.128 64.7865 106.587 65.3282 106.587 65.9957V71.2699C106.587 74.2546 109.007 76.6742 111.992 76.6742H115.183C117.986 76.6742 120.26 74.4014 120.26 71.5969V66.3361C120.26 65.4807 119.567 64.7876 118.712 64.7876V64.7865ZM113.809 70.094V72.5436C113.809 72.7572 113.636 72.9308 113.423 72.9308C113.317 72.9308 113.221 72.8874 113.151 72.8173C113.08 72.7472 113.037 72.6504 113.037 72.5436V70.094C112.238 69.9182 111.64 69.2063 111.64 68.3541C111.64 68.0315 111.725 67.7278 111.876 67.4675C112.183 66.9313 112.761 66.5709 113.423 66.5709C114.085 66.5709 114.64 66.9168 114.953 67.4352C115.114 67.7022 115.206 68.0182 115.206 68.353C115.206 69.2052 114.608 69.9171 113.809 70.0929V70.094ZM110.423 64.7865C110.366 64.6052 110.337 64.4116 110.337 64.2113V63.8186C110.337 62.7318 111.222 61.8474 112.308 61.8474H114.329C115.417 61.8474 116.301 62.7318 116.301 63.8186V64.2113C116.301 64.4116 116.271 64.6052 116.215 64.7865H110.423Z" fill="#92BFF8"/>
<path opacity="0.35" d="M156.622 90.2217C161.249 90.2217 165 86.4708 165 81.8438C165 77.2169 161.249 73.4659 156.622 73.4659C151.995 73.4659 148.244 77.2169 148.244 81.8438C148.244 86.4708 151.995 90.2217 156.622 90.2217Z" fill="#132959"/>
<path d="M155.926 89.1392C160.553 89.1392 164.303 85.3883 164.303 80.7613C164.303 76.1343 160.553 72.3834 155.926 72.3834C151.299 72.3834 147.548 76.1343 147.548 80.7613C147.548 85.3883 151.299 89.1392 155.926 89.1392Z" fill="#92BFF8"/>
<path d="M158.215 80.1173H158.177V78.6278C158.177 77.9914 157.919 77.4152 157.502 76.998C157.085 76.5808 156.508 76.3228 155.872 76.3228C154.599 76.3228 153.567 77.3551 153.567 78.6278V80.1207C153.129 80.1563 152.784 80.5234 152.784 80.9706V84.3458C152.784 84.8175 153.167 85.199 153.637 85.199H158.215C158.687 85.199 159.068 84.8163 159.068 84.3458V80.9706C159.068 80.4989 158.686 80.1173 158.215 80.1173ZM156.106 83.1644V83.7484C156.106 83.8774 156.001 83.982 155.871 83.982C155.741 83.982 155.637 83.8774 155.637 83.7484V83.1644C155.247 83.0609 154.96 82.7049 154.96 82.2833C154.96 81.7793 155.368 81.3722 155.871 81.3722C156.374 81.3722 156.783 81.7805 156.783 82.2833C156.783 82.706 156.495 83.0609 156.106 83.1644ZM157.704 80.1173H154.04V78.6278C154.04 77.6177 154.862 76.7955 155.872 76.7955C156.882 76.7955 157.704 77.6177 157.704 78.6278V80.1173ZM155.872 81.8439C155.63 81.8439 155.433 82.0408 155.433 82.2833C155.433 82.5258 155.63 82.7227 155.872 82.7227C156.115 82.7227 156.312 82.5258 156.312 82.2833C156.312 82.0408 156.115 81.8439 155.872 81.8439Z" fill="#1D3B77"/>
<path opacity="0.35" d="M170.71 100.187H190.907C191.803 100.187 192.53 100.913 192.53 101.81V112.294C192.53 113.19 191.803 113.917 190.907 113.917H176.072C176.072 113.917 176.062 113.921 176.061 113.927C175.772 116.426 173.649 118.365 171.073 118.365C170.889 118.365 170.708 118.355 170.528 118.336C170.91 118.063 171.384 117.621 171.695 116.947C171.795 116.73 172.025 116.172 172.007 115.432C171.999 115.116 171.948 114.824 171.872 114.559C171.76 114.177 171.409 113.917 171.012 113.917H170.709C169.812 113.917 169.086 113.19 169.086 112.294V101.811C169.086 100.915 169.812 100.188 170.709 100.188L170.71 100.187Z" fill="#132959"/>
<path d="M169.822 99.1681H190.019C190.916 99.1681 191.642 99.8945 191.642 100.791V111.275C191.642 112.172 190.916 112.898 190.019 112.898H175.184C175.184 112.898 175.174 112.902 175.173 112.908C174.884 115.407 172.761 117.346 170.185 117.346C170.001 117.346 169.82 117.336 169.64 117.317C170.023 117.044 170.496 116.602 170.807 115.928C170.907 115.711 171.137 115.153 171.119 114.413C171.112 114.097 171.06 113.805 170.984 113.54C170.872 113.158 170.521 112.898 170.124 112.898H169.821C168.925 112.898 168.198 112.172 168.198 111.275V100.792C168.198 99.8956 168.925 99.1692 169.821 99.1692L169.822 99.1681Z" fill="#92BFF8"/>
<path d="M189.395 101.75H170.446V102.564H189.395V101.75Z" fill="#132959"/>
<path d="M189.395 103.715H170.446V104.529H189.395V103.715Z" fill="#132959"/>
<path d="M184.704 105.68H170.446V106.495H184.704V105.68Z" fill="#132959"/>
<path d="M182.627 107.645H170.446V108.459H182.627V107.645Z" fill="#132959"/>
<path opacity="0.35" d="M57.6469 72.4069H37.8897C37.0131 72.4069 36.3022 73.1177 36.3022 73.9943V84.2501C36.3022 85.1267 37.0131 85.8375 37.8897 85.8375H52.4017C52.4017 85.8375 52.4117 85.842 52.4128 85.8475C52.6954 88.2916 54.7723 90.1883 57.292 90.1883C57.4723 90.1883 57.6491 90.1783 57.8249 90.1605C57.45 89.8946 56.9872 89.4619 56.6835 88.8022C56.5856 88.5897 56.3598 88.0446 56.3776 87.3204C56.3854 87.0112 56.4355 86.7253 56.5111 86.4661C56.6201 86.0934 56.9639 85.8375 57.3521 85.8375H57.648C58.5246 85.8375 59.2355 85.1267 59.2355 84.2501V73.9954C59.2355 73.1188 58.5246 72.4069 57.6469 72.4069Z" fill="#132959"/>
<path d="M56.7947 71.2855H37.0375C36.1609 71.2855 35.4501 71.9964 35.4501 72.873V83.1287C35.4501 84.0053 36.1609 84.7162 37.0375 84.7162H51.5495C51.5495 84.7162 51.5595 84.7206 51.5606 84.7262C51.8432 87.1703 53.9202 89.067 56.4399 89.067C56.6201 89.067 56.797 89.057 56.9727 89.0392C56.5978 88.7733 56.1351 88.3406 55.8314 87.6809C55.7335 87.4684 55.5076 86.9233 55.5254 86.1991C55.5332 85.8898 55.5833 85.6039 55.6589 85.3447C55.7679 84.972 56.1117 84.7162 56.4999 84.7162H56.7959C57.6725 84.7162 58.3833 84.0053 58.3833 83.1287V72.8741C58.3833 71.9975 57.6725 71.2855 56.7947 71.2855Z" fill="#1D3B77"/>
<path d="M39.8365 78.0004C39.8365 79.5033 41.0547 80.7203 42.5565 80.7203C43.8636 80.7203 44.956 79.7981 45.2175 78.5688H50.4682V79.8659H51.5996V79.0628H52.1225V79.8659H53.2538V78.5688H53.9947V77.4308H45.2152C44.9538 76.2015 43.8614 75.2793 42.5542 75.2793C41.0524 75.2793 39.8343 76.4974 39.8343 77.9992L39.8365 78.0004ZM40.7209 78.0004C40.7209 76.988 41.5441 76.1648 42.5565 76.1648C43.5688 76.1648 44.392 76.988 44.392 78.0004C44.392 79.0127 43.5688 79.8359 42.5565 79.8359C41.5441 79.8359 40.7209 79.0127 40.7209 78.0004Z" fill="#92BFF8"/>
<path d="M140.167 127.338L139.538 133.039C139.31 135.103 137.567 136.665 135.49 136.665H64.6186C62.1924 136.665 60.3057 134.558 60.5715 132.146L61.1011 127.338H140.167Z" fill="#92BFF8"/>
<path d="M140.711 81.1775H69.8394C67.7625 81.1775 66.0192 82.7394 65.7912 84.803L61.1011 127.338H140.167L144.758 85.6952C145.024 83.2845 143.136 81.1764 140.711 81.1764V81.1775ZM142.503 85.446L138.134 125.067H63.6341L68.0472 85.05C68.1485 84.1355 68.9183 83.4447 69.8394 83.4447H140.711C141.23 83.4447 141.706 83.6572 142.053 84.0443C142.4 84.4314 142.558 84.9287 142.503 85.4449V85.446Z" fill="#84B0ED"/>
<path d="M147.424 87.2582L142.205 134.601C141.898 137.383 139.556 139.481 136.757 139.481H65.8857C64.3294 139.481 62.842 138.816 61.803 137.657C60.7651 136.498 60.2678 134.946 60.438 133.399L60.556 132.326C60.4002 134.661 62.2536 136.665 64.6186 136.665H135.49C137.567 136.665 139.31 135.103 139.538 133.039L140.167 127.338L144.758 85.6952C145.024 83.2845 143.136 81.1764 140.711 81.1764H141.977C143.533 81.1764 145.02 81.8405 146.059 82.9997C147.097 84.1589 147.594 85.7108 147.424 87.2571V87.2582Z" fill="#1E3C78"/>
<path d="M142.503 85.446L138.134 125.067H63.6341L68.0472 85.05C68.1484 84.1355 68.9183 83.4447 69.8394 83.4447H140.711C141.23 83.4447 141.706 83.6572 142.053 84.0443C142.4 84.4314 142.558 84.9287 142.503 85.4449V85.446Z" fill="#1E3C78"/>
<path d="M112.165 147.441H98.4072L95.3546 139.481H109.112L112.165 147.441Z" fill="#92BFF8"/>
<path d="M114.599 148.255C114.599 149.074 113.935 149.738 113.117 149.738H92.4835C92.4835 148.469 93.5125 147.441 94.7807 147.441H112.165L109.114 139.481H111.548L114.308 146.68C114.404 146.931 114.478 147.191 114.526 147.454C114.575 147.718 114.599 147.986 114.599 148.255Z" fill="#1E3C78"/>
<path d="M94.7806 147.441C93.5124 147.441 92.4834 148.469 92.4834 149.738H78.7267C78.7267 148.469 79.7547 147.441 81.024 147.441H94.7817H94.7806Z" fill="#84B0ED"/>
<g style="mix-blend-mode:multiply">
<path d="M37.2555 131.444C36.8005 130.767 36.2443 130.181 35.6158 129.699L36.0841 127.794L34.8604 127.243L33.6367 126.692L32.5198 128.307C31.7422 128.154 30.9357 128.126 30.1269 128.234L29.1101 126.556L27.8553 127.031L26.6004 127.506L26.952 129.437C26.2756 129.892 25.6893 130.448 25.2088 131.078L23.3031 130.609L22.7525 131.833L22.2018 133.057L23.8148 134.174C23.6624 134.951 23.6346 135.759 23.7425 136.567L22.0638 137.583L22.5389 138.838L23.0139 140.093L24.9451 139.742C25.4001 140.418 25.9563 141.004 26.5849 141.485L26.1165 143.39L27.3402 143.941L28.5639 144.492L29.6808 142.878C30.4584 143.03 31.265 143.058 32.0737 142.95L33.0905 144.629L34.3453 144.154L35.6002 143.679L35.2487 141.747C35.925 141.292 36.5113 140.736 36.9919 140.106L38.8975 140.575L39.4482 139.351L39.9988 138.127L38.3858 137.011C38.5382 136.233 38.566 135.425 38.4581 134.618L40.1368 133.601L39.6618 132.346L39.1867 131.091L37.2555 131.443V131.444ZM32.8847 140.299C30.2849 141.285 27.3792 139.975 26.3946 137.375C25.409 134.776 26.7184 131.87 29.317 130.884C31.9169 129.899 34.8226 131.208 35.8071 133.808C36.7927 136.408 35.4834 139.313 32.8847 140.299Z" fill="#92BFF8"/>
</g>
<path d="M163.594 149.38C163.559 149.56 163.426 149.688 163.242 149.705C163.224 149.706 163.204 149.708 163.184 149.709C162.871 149.729 162.551 149.698 162.235 149.692C161.902 149.688 161.568 149.687 161.234 149.688C160.836 149.689 160.439 149.694 160.041 149.699C159.849 149.7 159.657 149.699 159.465 149.701C159.222 149.706 158.976 149.731 158.759 149.596C158.674 149.543 158.605 149.47 158.559 149.388C158.298 148.923 158.812 148.579 159.185 148.429C159.529 148.291 159.893 148.242 160.23 148.072C160.552 147.908 160.846 147.684 161.09 147.423C161.229 147.273 161.41 147.047 161.575 146.738C162.106 146.756 162.637 146.773 163.17 146.79C163.245 147.288 163.349 147.684 163.436 147.974C163.487 148.144 163.524 148.32 163.551 148.494C163.595 148.779 163.648 149.093 163.594 149.38Z" fill="#1A1943"/>
<path d="M151.123 149.554C151.011 149.687 150.825 149.726 150.653 149.726C150.188 149.727 149.721 149.716 149.256 149.716C148.534 149.717 147.814 149.717 147.092 149.719C146.489 149.719 145.708 149.852 145.208 149.431C145.125 149.362 145.035 149.252 145.023 149.138C145.018 149.096 145.025 149.054 145.046 149.012C145.226 148.657 145.814 148.551 146.165 148.48C146.589 148.393 147.025 148.345 147.433 148.194C147.788 148.062 148.032 147.908 148.273 147.756C148.668 147.506 148.867 147.382 149.026 147.142C149.075 147.068 149.115 146.994 149.145 146.92C149.692 146.9 150.239 146.879 150.785 146.858C150.924 147.6 151.065 148.342 151.204 149.085C151.235 149.244 151.231 149.424 151.121 149.553L151.123 149.554Z" fill="#1A1943"/>
<path d="M160.213 122.333C160.197 122.337 160.182 122.341 160.168 122.345C160.176 122.339 160.184 122.331 160.191 122.324L160.213 122.332V122.333Z" fill="white"/>
<path d="M157.14 123.73L157.052 123.698C157.092 123.683 157.121 123.667 157.141 123.655C157.141 123.659 157.135 123.689 157.14 123.73Z" fill="#2A458A"/>
<path d="M157.77 123.966L157.555 123.886C157.628 123.825 157.651 123.738 157.652 123.732C157.649 123.83 157.694 123.92 157.77 123.966Z" fill="#2A458A"/>
<path d="M157.845 123.994C157.822 123.99 157.8 123.983 157.778 123.97C157.774 123.969 157.772 123.967 157.77 123.966L157.845 123.994Z" fill="#2A458A"/>
<path d="M162.964 112.802C163.274 112.381 163.581 112.074 163.796 111.876" stroke="#004C59" stroke-width="0.0289238" stroke-miterlimit="10"/>
<path d="M159.606 106.175C159.504 106.692 159.54 107.092 159.582 107.341C159.683 107.942 159.952 108.42 160.314 108.969" stroke="#004C59" stroke-width="0.0289238" stroke-miterlimit="10"/>
<path d="M164.483 108.037L161.619 110.763C161.471 110.571 161.338 110.399 161.052 110.012C160.877 109.775 160.764 109.622 160.681 109.508C160.648 109.462 160.619 109.42 160.595 109.384C160.497 109.24 160.403 109.103 160.314 108.971C160.127 109.786 159.985 110.724 159.948 111.767C159.918 112.625 159.968 113.353 160.065 114.145C160.122 114.608 160.193 115.093 160.274 115.638C160.336 116.057 160.41 116.508 160.5 116.99C160.212 117.48 159.87 118.059 159.471 118.732C159.416 118.823 159.362 118.916 159.305 119.011C159.303 119.015 159.3 119.02 159.297 119.024C159.324 119.029 159.351 119.033 159.38 119.039C159.431 119.048 159.487 119.059 159.544 119.072C159.539 119.079 159.533 119.087 159.528 119.093C159.503 119.124 159.478 119.156 159.452 119.187L149.984 115.647C149.984 115.618 149.984 115.588 149.984 115.559C149.979 114.729 149.971 113.754 149.957 112.445C149.954 112.086 149.949 111.702 149.946 111.289C149.939 110.59 149.932 109.889 149.923 109.189C149.441 109.809 148.993 110.294 148.629 110.66C148.236 111.054 147.897 111.349 147.219 111.941C147.12 112.028 147.03 112.106 146.947 112.177C146.466 112.589 146.226 112.767 145.991 112.926C145.618 113.178 145.413 113.277 144.911 113.561C144.573 113.752 144.117 114.018 143.573 114.36L141.014 113.403C142.088 112.521 142.845 111.926 143.407 111.499C143.553 111.387 143.691 111.278 143.821 111.171C144.328 110.755 144.724 110.376 145.106 110.052C145.19 109.98 145.352 109.843 145.525 109.626C145.602 109.531 145.668 109.436 145.724 109.344C145.927 109.018 146.016 108.725 146.083 108.534C146.159 108.315 146.504 107.757 147.193 106.644C147.626 105.944 147.842 105.594 148.142 105.168C148.33 104.899 148.722 104.353 149.282 103.697C149.296 103.68 149.31 103.665 149.323 103.648C149.508 103.431 149.677 103.201 149.823 102.956C150.001 102.657 150.268 102.325 150.654 102.095C151.071 101.847 151.273 101.929 152.21 101.658C152.57 101.553 152.883 101.442 153.139 101.341C153.232 101.37 153.336 101.391 153.448 101.397C153.468 101.399 153.487 101.4 153.506 101.4C153.844 101.6 154.396 101.858 155.059 101.917C155.412 101.948 155.797 101.923 156.197 101.801C156.927 101.581 157.41 101.136 157.672 100.837C157.786 100.875 157.898 100.912 158.011 100.95C158.261 101.033 158.485 101.103 158.69 101.163C160.717 101.871 161.646 103.354 161.646 103.354C161.715 103.431 161.79 103.519 161.875 103.622C162.194 104.006 162.371 104.219 162.664 104.646C162.799 104.844 163.172 105.397 163.624 106.241C163.995 106.933 164.23 107.466 164.481 108.039L164.483 108.037Z" fill="#FF4035"/>
<path d="M150.536 108.347C150.328 108.65 150.122 108.93 149.923 109.186" stroke="#004C59" stroke-width="0.0289238" stroke-miterlimit="10"/>
<path d="M160.191 122.325L160.213 122.333C160.197 122.337 160.182 122.341 160.168 122.345C160.176 122.339 160.184 122.331 160.191 122.324V122.325Z" fill="#003B59"/>
<path d="M157.14 123.73L157.052 123.698C157.092 123.683 157.121 123.667 157.141 123.655C157.141 123.659 157.135 123.689 157.14 123.73Z" fill="#003B59"/>
<path d="M157.77 123.966L157.555 123.886C157.628 123.825 157.651 123.738 157.652 123.732C157.649 123.83 157.694 123.92 157.77 123.966Z" fill="#003B59"/>
<path d="M161.459 119.934C161.427 119.991 161.4 120.041 161.379 120.08C161.306 120.008 161.221 119.929 161.122 119.845C161.094 119.822 161.065 119.799 161.035 119.775L161.46 119.934H161.459Z" fill="#003B59"/>
<path d="M157.845 123.994C157.822 123.99 157.8 123.983 157.778 123.97C157.774 123.969 157.772 123.967 157.77 123.966L157.845 123.994Z" fill="#F6B1C3"/>
<path d="M163.46 146.799C163.363 146.794 163.268 146.792 163.17 146.789C162.638 146.772 162.107 146.756 161.575 146.737C161.457 146.733 161.337 146.73 161.219 146.726C160.647 144.027 160.25 141.807 159.992 140.259C159.444 136.992 159.489 136.591 159.052 134.948C158.495 132.864 158.072 132.195 157.174 129.277C156.681 127.679 156.339 126.354 156.127 125.484C155.171 127.531 154.653 129.301 154.356 130.577C153.924 132.429 153.747 134.14 153.67 134.912C153.498 136.622 153.586 136.9 153.381 138.308C153.202 139.533 153.005 140.224 152.55 142.029C152.264 143.162 151.861 144.802 151.393 146.835C151.192 146.841 150.99 146.849 150.787 146.857C150.241 146.878 149.695 146.899 149.147 146.919C148.957 146.927 148.767 146.935 148.578 146.941C149.131 142.276 149.331 138.532 149.409 135.959C149.478 133.698 149.466 131.963 149.697 129.204C149.874 127.102 150.121 125.271 150.357 123.802C150.492 122.958 150.541 122.101 150.505 121.247L150.527 121.255L155.244 123.018L156.495 123.485C156.502 123.531 156.519 123.574 156.546 123.61C156.63 123.721 156.774 123.727 156.848 123.729C156.93 123.732 157.001 123.714 157.055 123.694L157.141 123.727C157.147 123.773 157.166 123.835 157.219 123.883C157.319 123.974 157.449 123.937 157.465 123.932C157.503 123.921 157.533 123.903 157.558 123.882L157.772 123.962C157.772 123.962 157.778 123.966 157.78 123.967C157.802 123.979 157.825 123.986 157.847 123.99L161.547 125.374C161.699 126.572 161.881 127.768 162.054 128.95C162.611 132.78 162.955 134.278 163.353 137.837C163.596 139.987 163.676 141.287 163.678 142.677C163.683 144.363 163.573 145.774 163.462 146.796L163.46 146.799Z" fill="#404654"/>
<path d="M147.341 116.331L146.701 118.043L141.804 116.205L139.253 115.249L131.238 112.242L129.163 113.223C128.816 113.388 128.405 113.336 128.106 113.094L125.416 110.897C125.127 110.66 125.02 110.265 125.152 109.914L125.454 109.105L125.757 108.294C125.888 107.943 126.227 107.715 126.601 107.727L130.073 107.833C130.457 107.845 130.801 108.077 130.955 108.429L131.878 110.531L140.469 113.755L141.243 114.045L142.008 114.332L143.016 114.71L147.341 116.333V116.331Z" fill="#929497"/>
<path d="M148.878 114.118C148.942 114.127 149.005 114.142 149.067 114.165C149.512 114.331 149.738 114.827 149.571 115.271L149.528 115.386L147.725 120.209L147.688 120.305C147.545 120.687 147.159 120.908 146.771 120.857C146.708 120.848 146.644 120.833 146.582 120.81C146.137 120.644 145.911 120.148 146.078 119.704L146.7 118.043L147.34 116.331L147.96 114.67C148.103 114.288 148.489 114.067 148.877 114.118H148.878Z" fill="#F69226"/>
<path d="M149.529 115.386L163.149 120.431C164.293 120.86 164.954 122.016 164.801 123.177C164.776 123.367 164.729 123.557 164.659 123.745C164.161 125.077 162.678 125.753 161.345 125.256L147.726 120.211L149.529 115.388V115.386Z" fill="#FFC51E"/>
<path d="M142.099 115.13C142.083 115.411 142.06 115.83 141.803 116.206C141.768 116.258 141.728 116.309 141.684 116.358C141.672 116.371 141.659 116.384 141.646 116.398C141.557 116.489 141.448 116.557 141.331 116.596C141.184 116.646 141.024 116.654 140.869 116.616C140.546 116.537 140.281 116.444 140.079 116.364C139.411 116.102 139.252 115.903 139.204 115.8C139.197 115.784 139.192 115.769 139.189 115.758C139.131 115.571 139.191 115.392 139.252 115.249C139.262 115.225 139.272 115.204 139.281 115.183C139.448 114.806 139.753 114.613 140.017 114.445C140.231 114.311 140.508 114.135 140.915 114.077C141.002 114.065 141.117 114.048 141.242 114.043C141.49 114.033 141.779 114.067 141.959 114.269C141.977 114.289 141.992 114.309 142.005 114.33C142.13 114.517 142.117 114.758 142.097 115.128L142.099 115.13Z" fill="#FBCBA5"/>
<path d="M151.945 94.9373C152.024 95.0942 152.129 95.2088 152.224 95.29C152.247 95.2644 152.272 95.2399 152.297 95.2143C152.484 95.0341 152.663 94.9485 152.818 94.8728C153.034 94.7693 153.855 94.3744 154.46 94.7237C154.73 94.8795 154.841 95.1153 155.037 95.5336C155.3 96.0987 155.406 96.6394 155.442 97.0788C155.474 96.9887 155.63 96.5804 156.049 96.4069C156.125 96.3757 156.498 96.2222 156.763 96.4069C156.956 96.5426 156.99 96.7885 157.03 97.1111C157.08 97.5138 157.032 97.8241 157.02 97.9209C156.98 98.2191 156.983 98.634 157.154 99.1813C157.17 98.8732 157.225 98.634 157.297 98.0711C157.391 97.3569 157.421 96.8485 157.457 96.2267C157.515 95.2566 157.541 94.7649 157.415 94.4679C157.08 93.6825 156.289 93.3465 156.094 93.2631C155.582 93.0462 155.155 93.0551 154.442 93.0717C153.591 93.0907 153.083 93.2664 152.971 93.3065C152.485 93.48 152.063 93.6302 151.894 94.0418C151.718 94.469 151.929 94.8995 151.947 94.9373H151.945Z" fill="#1A1943"/>
<path d="M157.672 100.836C157.41 101.135 156.927 101.58 156.197 101.8C155.796 101.921 155.412 101.947 155.059 101.916C155.192 101.687 155.326 101.415 155.436 101.105C155.492 100.947 155.542 100.779 155.582 100.601C155.627 100.463 155.666 100.317 155.696 100.162C155.743 99.9157 155.761 99.6887 155.761 99.4885C155.737 99.5352 155.714 99.5797 155.691 99.6231C155.664 99.6731 155.636 99.7221 155.608 99.7688C155.356 100.195 155.08 100.484 154.888 100.662C154.574 100.951 154.229 101.27 153.796 101.369C153.783 101.372 153.771 101.374 153.757 101.376C153.677 101.392 153.594 101.4 153.506 101.399C153.487 101.399 153.468 101.399 153.448 101.396C153.336 101.39 153.231 101.369 153.139 101.34C152.883 101.261 152.708 101.124 152.649 101.077C152.231 100.742 152.123 100.276 151.946 99.4462C151.844 98.969 151.814 98.6096 151.754 97.8899C151.703 97.2758 151.678 96.9632 151.712 96.6962C151.763 96.2846 151.826 95.7262 152.225 95.2901C152.248 95.2645 152.273 95.2389 152.298 95.2144C152.485 95.0342 152.664 94.9485 152.82 94.8729C153.035 94.7694 153.856 94.3734 154.462 94.7238C154.731 94.8796 154.842 95.1154 155.038 95.5337C155.301 96.0988 155.407 96.6395 155.443 97.0789C155.475 96.9888 155.631 96.5805 156.05 96.4081C156.126 96.3769 156.5 96.2223 156.764 96.4081C156.957 96.5427 156.991 96.7885 157.03 97.1112C157.08 97.5139 157.032 97.8242 157.02 97.921C156.98 98.2192 156.983 98.6341 157.153 99.1814C157.148 99.2704 157.146 99.3661 157.147 99.4773C157.149 99.6743 157.163 99.8511 157.179 100.007C157.217 100.339 157.276 100.571 157.306 100.682C157.309 100.693 157.312 100.703 157.315 100.714C157.433 100.756 157.552 100.796 157.671 100.836H157.672Z" fill="#FBCBA5"/>
<path d="M165.929 113.019C165.896 113.162 165.844 113.335 165.672 113.693C165.311 114.442 164.925 114.967 164.865 115.048C164.089 116.108 164.246 116.059 163.557 116.994C163.53 117.032 163.5 117.071 163.47 117.112C162.681 118.17 162.235 118.593 161.583 119.713C161.536 119.794 161.494 119.869 161.458 119.933C161.426 119.99 161.399 120.04 161.378 120.079C161.305 120.007 161.22 119.928 161.121 119.844C161.093 119.821 161.064 119.798 161.034 119.774C161.007 119.753 160.979 119.732 160.95 119.711C160.938 119.702 160.927 119.693 160.915 119.684C160.853 119.64 160.787 119.594 160.716 119.549C160.696 119.537 160.675 119.524 160.653 119.512C160.622 119.493 160.591 119.474 160.558 119.456C160.549 119.452 160.54 119.446 160.531 119.442C160.518 119.435 160.506 119.427 160.492 119.42C160.371 119.356 160.253 119.3 160.138 119.255C159.921 119.166 159.72 119.107 159.544 119.068C159.454 119.047 159.371 119.032 159.296 119.02C159.355 118.921 159.413 118.823 159.47 118.727C159.869 118.054 160.211 117.476 160.499 116.985C160.769 116.526 160.994 116.142 161.176 115.829C161.539 115.208 161.933 114.602 162.269 113.966C162.458 113.608 162.62 113.274 162.926 112.851C162.938 112.835 162.951 112.818 162.963 112.801C162.901 112.672 162.828 112.529 162.743 112.377C162.528 111.994 162.324 111.714 161.925 111.172C161.795 110.995 161.704 110.875 161.617 110.761L164.48 108.034C164.484 108.043 164.488 108.052 164.491 108.06C164.618 108.348 164.575 108.259 165.206 109.815C165.583 110.744 165.738 111.123 165.874 111.719C165.977 112.169 166.027 112.567 165.925 113.017L165.929 113.019Z" fill="#FF4035"/>
<path d="M155.761 99.4873C155.761 99.6875 155.744 99.9145 155.696 100.16C155.666 100.316 155.627 100.462 155.582 100.6C155.542 100.778 155.492 100.946 155.436 101.104C155.326 101.414 155.192 101.686 155.059 101.915C154.396 101.856 153.844 101.598 153.506 101.397C153.593 101.399 153.676 101.391 153.757 101.375C153.771 101.373 153.784 101.37 153.796 101.367C154.229 101.268 154.574 100.95 154.888 100.661C155.08 100.483 155.355 100.194 155.608 99.7676C155.636 99.7209 155.664 99.672 155.691 99.6219C155.714 99.5785 155.738 99.5329 155.761 99.4873Z" fill="#E75E6E"/>
<path d="M161.121 119.845C160.889 120.434 160.68 120.939 160.507 121.348C160.253 121.944 160.141 122.184 159.932 122.477C159.914 122.502 159.896 122.526 159.878 122.551C159.642 122.866 159.391 123.114 159.21 123.291C158.954 123.542 158.722 123.736 158.55 123.872C158.488 123.926 158.4 123.939 158.325 123.907C158.217 123.86 158.199 123.744 158.199 123.739C158.194 123.761 158.158 123.891 158.031 123.956C158.008 123.968 157.931 124.007 157.845 123.993L157.77 123.965C157.693 123.919 157.649 123.829 157.652 123.731C157.651 123.737 157.628 123.822 157.555 123.885C157.531 123.906 157.5 123.924 157.463 123.935C157.446 123.939 157.317 123.976 157.217 123.886C157.164 123.837 157.145 123.776 157.139 123.729C157.135 123.688 157.139 123.658 157.14 123.654C157.12 123.665 157.091 123.682 157.052 123.697C156.999 123.717 156.928 123.734 156.846 123.731C156.772 123.728 156.628 123.723 156.544 123.612C156.517 123.576 156.501 123.533 156.493 123.487C156.481 123.411 156.496 123.326 156.536 123.247C156.61 123.146 156.683 123.041 156.757 122.932C156.861 122.78 156.966 122.621 157.069 122.454C157.285 122.107 157.474 121.77 157.639 121.448C157.69 121.348 157.744 121.249 157.808 121.156C157.826 121.129 157.84 121.097 157.833 121.065C157.813 120.961 157.605 120.941 157.581 120.939C157.42 120.924 157.381 120.997 157.174 121.045C156.929 121.1 156.718 121.059 156.605 121.038C156.547 121.027 156.494 121.012 156.447 120.998C156.32 120.959 156.25 120.819 156.303 120.696C156.303 120.695 156.303 120.694 156.304 120.693C156.356 120.575 156.482 120.529 156.563 120.496C156.689 120.445 156.765 120.403 156.828 120.361C156.936 120.29 156.999 120.226 157.202 120.138C157.83 119.865 158.64 119.87 158.751 119.872C158.899 119.751 159.053 119.612 159.207 119.451C159.294 119.361 159.374 119.271 159.45 119.181L161.032 119.773C161.062 119.796 161.091 119.82 161.118 119.843L161.121 119.845Z" fill="#FBCBA5"/>
<path d="M161.034 119.775L159.452 119.183C159.484 119.145 159.515 119.107 159.546 119.069C159.72 119.108 159.923 119.167 160.14 119.256C160.254 119.302 160.372 119.357 160.493 119.421C160.507 119.428 160.519 119.436 160.532 119.443C160.541 119.447 160.55 119.453 160.559 119.457C160.591 119.475 160.623 119.494 160.655 119.513C160.676 119.525 160.697 119.538 160.717 119.55C160.787 119.595 160.854 119.639 160.916 119.685C160.928 119.694 160.941 119.703 160.952 119.712C160.981 119.733 161.008 119.754 161.035 119.775H161.034Z" fill="#F6B1C3"/>
<path d="M143.572 114.358L143.016 114.709L142.008 114.331C141.994 114.31 141.978 114.29 141.961 114.27C141.781 114.068 141.493 114.034 141.244 114.044L140.47 113.754L141.014 113.401L143.573 114.358H143.572Z" fill="#FF4035"/>
<path d="M122.763 107.767H85.95C85.7197 107.767 85.4973 107.954 85.4528 108.185L84.7619 111.78C84.7174 112.01 84.8687 112.197 85.099 112.197H121.912C122.143 112.197 122.365 112.01 122.41 111.78L123.1 108.185C123.145 107.954 122.994 107.767 122.763 107.767ZM121.902 111.668H85.3115L85.9589 108.295H122.55L121.902 111.668Z" fill="#9BC5ED"/>
<path d="M87.9968 108.588L87.4618 111.374H85.6618L86.1969 108.588H87.9968Z" fill="#9BC5ED"/>
<path d="M90.3975 108.588L89.8625 111.374H88.0625L88.5976 108.588H90.3975Z" fill="#9BC5ED"/>
<path d="M92.7971 108.588L92.262 111.374H90.462L90.9971 108.588H92.7971Z" fill="#9BC5ED"/>
<path d="M95.1978 108.588L94.6627 111.374H92.8627L93.3978 108.588H95.1978Z" fill="#9BC5ED"/>
<path d="M97.5984 108.588L97.0633 111.374H95.2623L95.7974 108.588H97.5984Z" fill="#9BC5ED"/>
<path d="M93.7248 102.084H94.3689L93.8072 105.007H95.6205L95.5159 105.552H93.0585L93.7248 102.084Z" fill="#9BC5ED"/>
<path d="M96.0476 103.818C96.2445 102.792 97.1834 102.035 98.2581 102.035C99.3338 102.035 99.9813 102.788 99.7832 103.818C99.5852 104.848 98.6474 105.601 97.5728 105.601C96.4971 105.601 95.8507 104.844 96.0476 103.818ZM99.1347 103.818C99.2704 103.11 98.8488 102.599 98.1502 102.599C97.4515 102.599 96.833 103.11 96.6973 103.818C96.5616 104.527 96.9832 105.037 97.6818 105.037C98.3804 105.037 98.999 104.527 99.1347 103.818Z" fill="#9BC5ED"/>
<path d="M102.489 104.749H100.755L100.258 105.552H99.5942L101.821 102.084H102.455L103.355 105.552H102.681L102.489 104.749ZM102.373 104.244L102.01 102.728L101.07 104.244H102.373Z" fill="#9BC5ED"/>
<path d="M104.462 102.084H105.979C107.103 102.084 107.738 102.778 107.538 103.818C107.338 104.858 106.437 105.552 105.312 105.552H103.796L104.462 102.084ZM105.387 105.007C106.16 105.007 106.751 104.537 106.889 103.818C107.026 103.1 106.616 102.629 105.844 102.629H105.002L104.545 105.007H105.387Z" fill="#9BC5ED"/>
<path d="M108.555 102.084H109.199L108.533 105.552H107.889L108.555 102.084Z" fill="#9BC5ED"/>
<path d="M113.217 102.084L112.551 105.552H112.02L110.559 103.204L110.107 105.552H109.467L110.134 102.084H110.664L112.126 104.432L112.578 102.084H113.217Z" fill="#9BC5ED"/>
<path d="M116.192 103.778H116.802L116.536 105.161C116.117 105.453 115.583 105.601 115.093 105.601C114.017 105.601 113.369 104.853 113.568 103.818C113.767 102.784 114.704 102.035 115.788 102.035C116.368 102.035 116.816 102.228 117.072 102.6L116.589 102.996C116.369 102.724 116.081 102.6 115.709 102.6C114.971 102.6 114.354 103.101 114.216 103.819C114.078 104.538 114.502 105.039 115.235 105.039C115.483 105.039 115.736 104.988 115.983 104.861L116.191 103.78L116.192 103.778Z" fill="#9BC5ED"/>
<path d="M74.1757 138.877L74.6841 144.48H78.8947L77.6565 138.877H74.1757Z" fill="#D62727"/>
<path d="M64.8333 144.48H74.6841L74.1757 138.877H66.0715L64.8333 144.48Z" fill="#ED3B3B"/>
<path d="M72.8898 124.704L73.4449 130.827H75.8789L74.742 125.678C74.6163 125.109 74.1124 124.704 73.5305 124.704H72.8909H72.8898Z" fill="#D62727"/>
<path d="M67.8492 130.827H73.4448L72.8897 124.704H70.1987C69.6158 124.704 69.1118 125.109 68.9872 125.678L67.8503 130.827H67.8492Z" fill="#ED3B3B"/>
<path d="M64.7099 145.039H79.0183L78.8948 144.479H64.8334L64.7099 145.039Z" fill="#D62727"/>
<path d="M75.7988 145.039C75.8711 145.039 75.9445 145.042 76.0146 145.049C77.2283 145.158 78.1794 146.178 78.1794 147.421V149.739H82.0341V147.421C82.0341 146.106 80.9683 145.04 79.6534 145.04H75.7988V145.039Z" fill="#D62727"/>
<path d="M61.694 147.42V149.738H78.1805V147.42C78.1805 146.177 77.2294 145.158 76.0157 145.048C75.9445 145.041 75.8722 145.038 75.7999 145.038H64.0757C62.7608 145.038 61.6951 146.104 61.6951 147.419L61.694 147.42Z" fill="#ED3B3B"/>
<path d="M66.0715 138.877H74.1758L73.4449 130.827H67.8492L66.0715 138.877Z" fill="#F2F2F2"/>
<path d="M73.4449 130.827L74.1758 138.877H77.6567L75.879 130.827H73.4449Z" fill="#DBDBDB"/>
<path d="M105.956 116.159H47.3922V122.955H105.956V116.159Z" fill="#2A2A2A"/>
<path d="M57.8471 116.159L49.2367 122.955H53.2004L61.8097 116.159H57.8471Z" fill="#2A2A2A"/>
<path d="M68.1428 116.159L59.5324 122.955H63.4961L72.1054 116.159H68.1428Z" fill="#2A2A2A"/>
<path d="M88.7344 116.159L80.1251 122.955H84.0877L92.6981 116.159H88.7344Z" fill="#2A2A2A"/>
<path d="M99.0302 116.159L90.4209 122.955H94.3835L102.994 116.159H99.0302Z" fill="#2A2A2A"/>
<path d="M105.956 118.92L100.717 122.955H105.956V118.92Z" fill="#2A2A2A"/>
<path d="M78.4386 116.159L69.8293 122.955H73.7919L82.4012 116.159H78.4386Z" fill="#2A2A2A"/>
<path d="M47.3922 116.159V119.339L51.5139 116.159H47.3922Z" fill="#2A2A2A"/>
<path d="M51.5139 116.159L47.3922 119.339V122.955H49.2367L57.8471 116.159H51.5139Z" fill="#FCD51C"/>
<path d="M61.8097 116.159L53.2004 122.955H59.5325L68.1429 116.159H61.8097Z" fill="#FCD51C"/>
<path d="M72.1055 116.159L63.4962 122.955H69.8294L78.4387 116.159H72.1055Z" fill="#FCD51C"/>
<path d="M82.4012 116.159L73.7919 122.955H80.1251L88.7344 116.159H82.4012Z" fill="#FCD51C"/>
<path d="M92.6982 116.159L84.0878 122.955H90.421L99.0303 116.159H92.6982Z" fill="#FCD51C"/>
<path d="M105.956 116.159H102.994L94.3835 122.955H100.717L105.956 118.92V116.159Z" fill="#FCD51C"/>
<path d="M105.814 116.12H47.4701V117.101H105.814V116.12Z" fill="#2A2A2A"/>
<path d="M60.5393 117.1L61.7697 116.12H57.8071L56.5767 117.1H60.5393Z" fill="#2A2A2A"/>
<path d="M70.835 117.1L72.0654 116.12H68.1028L66.8724 117.1H70.835Z" fill="#2A2A2A"/>
<path d="M91.4266 117.1L92.6569 116.12H88.6933L87.464 117.1H91.4266Z" fill="#2A2A2A"/>
<path d="M101.722 117.1L102.953 116.12H98.9901L97.7597 117.1H101.722Z" fill="#2A2A2A"/>
<path d="M81.1308 117.1L82.3612 116.12H78.3986L77.1683 117.1H81.1308Z" fill="#2A2A2A"/>
<path d="M50.2546 117.1L51.4738 116.12H47.4701V117.1H50.2546Z" fill="#2A2A2A"/>
<path d="M56.5767 117.1L57.8071 116.12H51.4739L50.2546 117.1H56.5767Z" fill="#FCD51C"/>
<path d="M66.8725 117.1L68.1029 116.12H61.7697L60.5393 117.1H66.8725Z" fill="#FCD51C"/>
<path d="M77.1682 117.1L78.3986 116.12H72.0654L70.835 117.1H77.1682Z" fill="#FCD51C"/>
<path d="M87.464 117.1L88.6933 116.12H82.3612L81.1308 117.1H87.464Z" fill="#FCD51C"/>
<path d="M97.7598 117.1L98.9902 116.12H92.657L91.4266 117.1H97.7598Z" fill="#FCD51C"/>
<path d="M105.814 117.1V116.12H102.953L101.722 117.1H105.814Z" fill="#FCD51C"/>
<path d="M105.814 116.12H47.4701V117.101H105.814V116.12Z" fill="#8E7E7E"/>
<path d="M60.5393 117.1L61.7697 116.12H57.8071L56.5767 117.1H60.5393Z" fill="#8E7E7E"/>
<path d="M70.835 117.1L72.0654 116.12H68.1028L66.8724 117.1H70.835Z" fill="#8E7E7E"/>
<path d="M91.4266 117.1L92.6569 116.12H88.6933L87.464 117.1H91.4266Z" fill="#8E7E7E"/>
<path d="M101.722 117.1L102.953 116.12H98.9901L97.7597 117.1H101.722Z" fill="#8E7E7E"/>
<path d="M81.1308 117.1L82.3612 116.12H78.3986L77.1683 117.1H81.1308Z" fill="#8E7E7E"/>
<path d="M50.2546 117.1L51.4738 116.12H47.4701V117.1H50.2546Z" fill="#8E7E7E"/>
<path d="M56.5767 117.1L57.8071 116.12H51.4739L50.2546 117.1H56.5767Z" fill="#FFE67B"/>
<path d="M66.8725 117.1L68.1029 116.12H61.7697L60.5393 117.1H66.8725Z" fill="#FFE67B"/>
<path d="M77.1682 117.1L78.3986 116.12H72.0654L70.835 117.1H77.1682Z" fill="#FFE67B"/>
<path d="M87.464 117.1L88.6933 116.12H82.3612L81.1308 117.1H87.464Z" fill="#FFE67B"/>
<path d="M97.7598 117.1L98.9902 116.12H92.657L91.4266 117.1H97.7598Z" fill="#FFE67B"/>
<path d="M105.814 117.1V116.12H102.953L101.722 117.1H105.814Z" fill="#FFE67B"/>
<path d="M57.786 122.955H53.3885V149.138H57.786V122.955Z" fill="#BFBBB6"/>
<path d="M58.3855 148.739H52.7888V149.738H58.3855V148.739Z" fill="#D6D3D0"/>
<path d="M57.8482 122.984H53.5986V125.435H57.8482V122.984Z" fill="#A5A19D"/>
<path d="M99.7599 122.955H95.5626V149.138H99.7599V122.955Z" fill="#BFBBB6"/>
<path d="M100.56 148.739H94.7628V149.738H100.56V148.739Z" fill="#D6D3D0"/>
<path d="M99.8491 122.984H95.5995V125.435H99.8491V122.984Z" fill="#A5A19D"/>
<path d="M34.7782 116.469L34.3387 116.745C34.3432 116.656 34.3465 116.568 34.351 116.48C34.3599 116.286 34.3688 116.096 34.3777 115.914C34.5512 116.157 34.6825 116.34 34.7782 116.469Z" fill="#FBBA28"/>
<path d="M51.2425 144.729C51.1668 144.753 51.0901 144.779 51.0089 144.803C50.5038 144.959 49.8987 145.101 49.2078 145.18C48.9764 145.207 48.7539 145.224 48.5403 145.234C48.2333 145.248 47.9463 145.247 47.6826 145.237C46.2709 141.339 44.8982 137.174 43.6155 132.752C42.6276 129.347 41.7666 126.045 41.0168 122.866C40.8822 123.702 40.7009 124.887 40.5084 126.312C40.1057 129.298 39.6251 132.929 39.4916 137.385C39.4349 139.264 39.426 141.765 39.6051 144.73C39.4572 144.802 39.2636 144.885 39.0311 144.957C38.7774 145.035 38.4771 145.1 38.1367 145.126C37.8185 145.149 37.527 145.133 37.269 145.096C36.8618 145.038 36.5381 144.928 36.3289 144.843C36.142 143.398 35.8528 141.2 35.4812 138.516C34.7303 133.093 34.7437 133.638 34.5779 132.188C34.242 129.252 34.1318 126.509 34.1329 123.907L38.8542 120.939C38.8954 120.967 38.9354 120.988 38.981 121.007C39.0989 121.056 39.1935 121.062 39.2157 121.064C39.4015 121.076 39.5384 121.006 39.673 120.942C40.1124 120.734 40.0356 120.823 40.5218 120.585C40.6375 120.528 40.7965 120.447 40.9857 120.343C41.2093 120.324 41.4329 120.305 41.6565 120.286C41.7455 120.228 41.9046 120.106 42.028 119.893C42.1337 119.71 42.1671 119.537 42.1782 119.436C42.1927 119.239 42.1448 119.208 42.1282 119.2C42.0859 119.182 42.0358 119.232 41.9068 119.321C41.8011 119.394 41.6976 119.455 41.6498 119.478C41.464 119.572 41.2705 119.546 41.1436 119.528C41.1314 119.526 41.118 119.524 41.1058 119.522L45.8515 116.538C46.9006 119.422 47.5013 121.827 47.8551 123.488C49.0276 128.975 48.7105 131.899 49.9454 138.742C50.4182 141.357 50.9199 143.452 51.2447 144.73L51.2425 144.729Z" fill="#404654"/>
<path d="M40.8588 101.179C40.6485 101.203 40.4705 101.205 40.3337 101.203C39.6762 101.188 39.3792 101.02 39.2568 100.94C39.1122 100.847 38.9976 100.739 38.9086 100.633C38.9843 100.67 39.0633 100.702 39.1467 100.728C39.7452 100.914 40.3548 100.732 40.8387 100.367C40.8343 100.543 40.8343 100.726 40.8432 100.916C40.8476 101.005 40.8521 101.093 40.8588 101.178V101.179Z" fill="#E75E6E"/>
<path d="M41.9401 97.5439C41.9112 98.2203 41.8834 98.9067 41.5641 99.5163C41.563 99.5196 41.5608 99.5241 41.5585 99.5274C41.3883 99.8489 41.1369 100.144 40.8388 100.368C40.3549 100.733 39.7452 100.915 39.1467 100.729C39.0644 100.703 38.9854 100.671 38.9087 100.634C38.7285 100.546 38.5683 100.429 38.4259 100.289C38.0376 99.9112 37.7829 99.3795 37.6171 98.8766C37.4291 98.3037 37.3902 97.6963 37.4736 97.1034C37.5181 97.2191 37.5659 97.3159 37.6082 97.3948C37.715 97.594 37.7918 97.6763 37.883 97.683C37.9297 97.6874 38.0576 97.6763 38.2813 97.2981C38.5182 96.8987 38.5716 96.5794 38.7073 96.1033C38.7607 95.9153 38.8453 95.6394 38.9687 95.3068C39.2914 95.6538 39.713 96.0988 40.2191 96.6128C40.6875 97.0878 40.9634 97.3526 41.4139 97.4783C41.6097 97.5328 41.791 97.5472 41.9412 97.545L41.9401 97.5439Z" fill="#FBCBA5"/>
<path d="M43.7479 97.2024C43.7456 97.6396 43.7412 98.2637 43.2951 98.7954C42.8868 99.2827 42.3273 99.4306 42.1548 99.4685C41.9323 99.5174 41.731 99.5252 41.5641 99.5163C41.8834 98.9067 41.9112 98.2214 41.9401 97.5439C41.7899 97.5461 41.6086 97.5317 41.4128 97.4772C40.9623 97.3515 40.6864 97.0867 40.218 96.6117C39.7119 96.0977 39.2903 95.6527 38.9676 95.3056C38.8442 95.6394 38.7596 95.9153 38.7062 96.1022C38.5705 96.5794 38.5171 96.8987 38.2801 97.2969C38.0565 97.6752 37.9286 97.6852 37.8819 97.6819C37.7918 97.6741 37.7139 97.5929 37.6071 97.3937C37.5648 97.3136 37.5181 97.2168 37.4725 97.1023C37.3891 97.6952 37.428 98.3026 37.616 98.8755C37.7807 99.3783 38.0365 99.9101 38.4248 100.288C38.4581 100.503 38.4859 100.727 38.506 100.959C38.516 101.066 38.5238 101.172 38.5293 101.275C38.3235 101.296 38.0966 101.33 37.8563 101.381C37.6015 101.435 37.329 101.511 37.0475 101.615C36.5848 101.786 35.2921 102.26 34.4377 103.48C34.1018 103.959 33.877 104.947 33.4265 106.924C33.402 107.033 33.3776 107.138 33.3553 107.239C32.8158 107.188 32.0026 106.982 31.4664 106.256C30.9624 105.574 30.988 104.819 30.9991 104.635C31.0069 104.52 31.0648 103.738 31.6588 103.083C31.8757 102.844 32.2184 102.655 32.8959 102.286C34.0283 101.67 34.1641 101.713 34.5857 101.366C35.1119 100.932 35.4178 100.439 35.5747 100.129C35.8973 99.4985 35.9596 98.9445 36.0285 98.2881C36.1253 97.3548 35.9718 97.3159 36.0697 96.5983C36.1309 96.1522 36.2421 95.339 36.8251 94.5648C37.4948 93.6748 38.4059 93.3444 38.7896 93.232C39.1022 93.1408 40.1669 92.8471 41.3171 93.3555C42.2572 93.7716 42.7244 94.488 43.007 94.9218C43.2428 95.2845 43.7556 96.0933 43.749 97.2024H43.7479Z" fill="#1A1943"/>
<path d="M41.0012 102.178C40.7509 102.35 40.4606 102.473 40.1313 102.493C39.703 102.52 39.3236 102.364 39.0967 102.271C38.892 102.187 38.7107 102.088 38.5505 101.982C38.2457 101.783 38.0176 101.562 37.8585 101.382C38.0988 101.329 38.3246 101.297 38.5316 101.276C38.526 101.171 38.5182 101.066 38.5082 100.96C38.4882 100.728 38.4592 100.504 38.427 100.289C38.5694 100.428 38.7296 100.546 38.9098 100.634C38.9988 100.739 39.1123 100.848 39.258 100.941C39.3804 101.021 39.6774 101.189 40.3348 101.204C40.4728 101.207 40.6508 101.204 40.8599 101.18C40.8677 101.276 40.8766 101.369 40.8866 101.461C40.9155 101.715 40.9556 101.956 41.0023 102.179L41.0012 102.178Z" fill="#FBCBA5"/>
<path d="M39.6619 147.822C39.663 147.945 39.6296 148.067 39.5528 148.163C39.5217 148.203 39.485 148.235 39.4438 148.261C39.3048 148.349 39.1201 148.346 38.9822 148.344C38.7052 148.34 38.6696 148.255 38.3436 148.211C38.0521 148.171 37.7863 148.199 37.6706 148.211C37.5326 148.225 37.4203 148.234 37.1978 148.25C37.0131 148.263 36.9508 148.265 36.8919 148.227C36.7428 148.132 36.7572 147.873 36.7639 147.799C36.7873 147.624 36.8218 147.369 36.8696 147.059C36.8718 147.045 36.8741 147.032 36.8763 147.017C36.9453 146.564 36.992 146.255 37.0743 145.875C37.1344 145.601 37.1989 145.339 37.2679 145.094C37.526 145.13 37.8174 145.147 38.1356 145.124C38.476 145.099 38.7764 145.034 39.03 144.955C39.0801 145.148 39.1435 145.387 39.2158 145.658C39.4516 146.531 39.5206 146.713 39.5807 147.025C39.5929 147.086 39.604 147.154 39.614 147.225C39.6385 147.396 39.6574 147.596 39.6608 147.82L39.6619 147.822Z" fill="#FBCBA5"/>
<path d="M39.8331 149.55C39.6763 149.652 39.4816 149.651 39.3025 149.676C38.4603 149.793 37.5971 149.752 36.7828 149.494C36.3956 149.372 36.2165 149.006 36.2633 148.618C36.3122 148.214 36.4946 147.831 36.6648 147.466C36.7227 147.342 36.7939 147.192 36.8773 147.018C36.8751 147.033 36.8729 147.046 36.8707 147.06C36.8228 147.37 36.7883 147.625 36.765 147.8C36.7583 147.874 36.7438 148.133 36.8929 148.228C36.9519 148.266 37.0142 148.264 37.1988 148.251C37.4213 148.234 37.5337 148.226 37.6716 148.212C37.7873 148.199 38.0532 148.172 38.3447 148.212C38.6717 148.256 38.7062 148.341 38.9832 148.345C39.1211 148.347 39.3058 148.35 39.4449 148.262C39.486 148.236 39.5216 148.203 39.5539 148.164C39.6307 148.068 39.664 147.946 39.6629 147.823C39.6596 147.598 39.6418 147.399 39.6162 147.228C39.8309 147.798 40.0245 148.396 40.05 148.998C40.0589 149.207 40.0233 149.429 39.8342 149.552L39.8331 149.55Z" fill="#1A1943"/>
<path d="M53.8857 147.863C53.8345 147.888 53.7767 147.915 53.7144 147.938C53.433 148.044 53.1971 148.041 53.0024 148.064C52.3906 148.133 51.9178 148.089 51.6007 148.058C51.0323 148.003 50.7486 147.975 50.416 147.848C49.7774 147.604 49.4582 147.483 49.2601 147.307C49.219 147.271 49.1222 147.18 49.0065 147.151C48.9909 146.869 48.9575 146.628 48.9242 146.435C48.8519 146.021 48.7629 145.765 48.7362 145.689C48.6739 145.513 48.606 145.362 48.5426 145.235C48.7562 145.225 48.9787 145.208 49.2101 145.181C49.9009 145.102 50.5061 144.96 51.0111 144.804C51.0912 145.111 51.1491 145.339 51.1869 145.483C51.2503 145.73 51.277 145.837 51.346 145.985C51.3727 146.041 51.475 146.254 51.6986 146.503C51.8533 146.675 52.039 146.834 52.3939 147.056C52.8178 147.319 53.0236 147.385 53.3851 147.574C53.5253 147.648 53.6955 147.742 53.8868 147.865L53.8857 147.863Z" fill="#FBCBA5"/>
<path d="M55.9437 149.021C55.9526 149.135 55.808 149.161 55.7257 149.19C54.868 149.483 53.9268 149.509 53.028 149.481C52.8466 149.476 52.6653 149.467 52.484 149.457C52.2092 149.44 51.93 149.415 51.6786 149.305C51.4917 149.223 51.327 149.097 51.1379 149.021C50.941 148.939 50.7074 148.923 50.5016 148.976C50.3681 149.009 50.2602 149.062 50.1823 149.108C50.1345 149.137 50.0777 149.148 50.0232 149.141C49.8452 149.115 49.6483 149.076 49.437 149.016C49.1833 148.944 48.9597 148.855 48.7706 148.766C48.6549 148.711 48.5848 148.591 48.5937 148.463C48.6093 148.221 48.6071 148.02 48.5993 147.865C48.5893 147.644 48.567 147.442 48.6961 147.278C48.7205 147.247 48.7873 147.167 48.8896 147.147C48.9297 147.139 48.9686 147.143 49.0064 147.152C49.1221 147.181 49.2189 147.271 49.2601 147.307C49.4592 147.483 49.7785 147.604 50.4159 147.848C50.7485 147.975 51.0322 148.003 51.6007 148.058C51.9177 148.089 52.3905 148.134 53.0024 148.064C53.1971 148.042 53.4329 148.045 53.7143 147.938C53.7766 147.915 53.8345 147.889 53.8857 147.864C53.9001 147.856 53.9135 147.849 53.9257 147.842C54.0392 147.784 54.1749 147.789 54.2806 147.861C54.3329 147.897 54.3918 147.936 54.4541 147.978C54.6777 148.127 54.9214 148.29 55.234 148.48C55.3408 148.544 55.4487 148.608 55.5566 148.67C55.6734 148.737 55.7946 148.794 55.8825 148.898C55.9126 148.934 55.9393 148.975 55.9426 149.021H55.9437Z" fill="#1A1943"/>
<path d="M24.9474 129.598L58.8105 108.438C60.7417 109.531 63.1947 109.559 65.2083 108.301C67.1829 107.068 68.2308 104.913 68.1429 102.742L63.7476 105.489L60.6361 103.786L60.4692 100.243L64.8645 97.496C62.9522 96.4659 60.556 96.4626 58.5814 97.6963C56.5678 98.9545 55.5177 101.172 55.6534 103.386L21.7903 124.548C20.3952 125.42 19.9714 127.256 20.8425 128.651C21.7146 130.046 23.5513 130.47 24.9463 129.599L24.9474 129.598ZM22.6224 125.918C23.2665 125.515 24.1142 125.712 24.5158 126.355C24.9185 126.999 24.7227 127.847 24.0786 128.249C23.4345 128.65 22.5868 128.456 22.1841 127.812C21.7814 127.167 21.9772 126.32 22.6213 125.917L22.6224 125.918Z" fill="#929497"/>
<path d="M44.8926 110.109L37.0476 115.043C37.3502 115.455 37.586 115.802 37.7707 116.082C37.9353 116.333 38.2479 116.825 38.773 117.404C38.9254 117.573 39.0789 117.728 39.228 117.873C39.1802 117.925 39.129 117.98 39.0745 118.034C38.8542 118.259 38.5883 118.496 38.2724 118.725C37.9887 118.93 37.7151 119.092 37.4648 119.224C37.3157 119.104 37.1533 118.97 36.9808 118.82C35.9963 117.965 35.3611 117.193 34.9206 116.654C34.8883 116.614 34.8416 116.554 34.7804 116.469C34.6847 116.34 34.5535 116.158 34.3799 115.914C34.1552 115.599 33.8604 115.182 33.4822 114.647C33.1562 114.185 32.9638 113.909 32.8247 113.475C32.6767 113.014 32.6701 112.627 32.7001 111.967C32.768 110.501 32.9393 109.396 32.9482 109.339C32.9994 109.017 33.1117 108.344 33.3565 107.239C33.3787 107.138 33.4021 107.033 33.4277 106.924C33.8782 104.947 34.104 103.96 34.4389 103.48C35.2932 102.26 36.5859 101.785 37.0487 101.616C37.3313 101.512 37.6027 101.436 37.8575 101.382C38.0165 101.562 38.2446 101.784 38.5494 101.983C38.7096 102.088 38.892 102.187 39.0956 102.271C39.3226 102.363 39.7019 102.519 40.1302 102.493C40.4595 102.473 40.7498 102.35 41.0001 102.178C40.9534 101.955 40.9134 101.715 40.8844 101.46C41.1292 101.503 41.375 101.547 41.622 101.583C41.8734 101.621 42.1271 101.652 42.3785 101.671C42.8924 101.711 43.4108 101.73 43.8736 101.988C44.3753 102.269 44.7113 102.755 44.9861 103.245C45.2998 103.806 45.5812 104.378 45.8515 104.962C46.3967 106.143 46.8939 107.347 47.3422 108.568L44.8915 110.109H44.8926Z" fill="#FBBA28"/>
<path d="M53.2916 112.47C53.2604 112.563 53.1948 112.648 53.1058 112.693C53.0624 112.716 53.0146 112.728 52.9656 112.728C52.9089 112.728 52.8533 112.719 52.8043 112.754C52.7799 112.772 52.7632 112.798 52.7509 112.826C52.7142 112.91 52.7231 113.005 52.6975 113.093C52.6731 113.173 52.6241 113.248 52.5796 113.318C52.4706 113.486 52.3315 113.618 52.1869 113.752C51.9934 113.931 51.7575 114.151 51.4004 114.178C51.2024 114.194 51.0378 114.144 50.9376 114.104C50.8286 114.183 50.6695 114.291 50.466 114.4C50.3491 114.462 49.7951 114.751 48.9764 114.863C48.8306 114.883 48.6527 114.899 48.4457 114.905L51.1023 113.234C51.1312 113.134 51.1546 113.033 51.1679 112.931C51.2169 112.565 51.2602 112.198 51.3059 111.831C51.3136 111.767 51.3225 111.701 51.3537 111.644C51.4193 111.524 51.5517 111.534 51.6574 111.593C51.7764 111.66 51.901 111.888 52.059 111.852C52.0768 111.848 52.0935 111.84 52.1035 111.824C52.1469 111.763 52.1235 111.658 52.1146 111.59C52.0846 111.352 51.97 111.129 51.9756 110.887C51.9756 110.845 51.9811 110.803 51.9978 110.765C52.1191 110.487 52.4606 110.882 52.5496 110.996C52.781 111.293 52.9745 111.614 53.1559 111.942C53.1726 111.972 53.1892 112.004 53.2059 112.035C53.2794 112.17 53.3439 112.313 53.2927 112.469L53.2916 112.47Z" fill="#FBCBA5"/>
<path d="M42.176 119.436C42.1649 119.537 42.1315 119.708 42.0258 119.893C41.9034 120.104 41.7432 120.227 41.6543 120.286C41.4306 120.305 41.207 120.324 40.9834 120.342C40.7943 120.448 40.6352 120.528 40.5195 120.585C40.0334 120.823 40.1091 120.734 39.6707 120.942C39.5373 121.006 39.3993 121.076 39.2135 121.063C39.1913 121.062 39.0967 121.054 38.9788 121.007C38.9332 120.988 38.8931 120.967 38.852 120.939C38.7663 120.882 38.6807 120.797 38.5583 120.657C38.318 120.385 38.1979 120.249 38.0799 120.03C37.9787 119.842 37.9186 119.673 37.883 119.55C37.7618 119.461 37.6205 119.352 37.4625 119.226C37.7128 119.095 37.9876 118.933 38.2713 118.728C38.5872 118.499 38.8531 118.262 39.0734 118.037C39.1512 118.126 39.2358 118.21 39.3648 118.282C39.5406 118.38 39.6185 118.331 40.1068 118.46C40.3838 118.534 40.4851 118.568 40.6708 118.575C40.9534 118.584 41.1347 118.554 41.1347 118.554C41.2816 118.528 41.4028 118.489 41.5486 118.539C41.6131 118.561 41.6609 118.594 41.691 118.617C41.6988 118.674 41.701 118.771 41.6487 118.86C41.5719 118.989 41.4251 119.025 41.2916 119.06C40.9712 119.141 40.742 119.139 40.742 119.139C40.7109 119.139 40.6397 119.137 40.6063 119.181C40.5785 119.218 40.5896 119.271 40.5985 119.302C40.6875 119.37 40.8611 119.484 41.1036 119.525C41.1158 119.527 41.1292 119.529 41.1414 119.532C41.2682 119.549 41.4618 119.576 41.6476 119.481C41.6954 119.457 41.7978 119.397 41.9046 119.325C42.0336 119.236 42.0837 119.186 42.1259 119.203C42.1426 119.211 42.1905 119.242 42.176 119.439V119.436Z" fill="#FBCBA5"/>
<path d="M36.38 105.92C36.3878 107.549 36.251 108.884 36.1063 109.862C35.925 111.095 35.707 111.919 35.628 112.209C35.559 112.463 35.4878 112.701 35.4177 112.921" stroke="#2A458A" stroke-width="0.11347" stroke-miterlimit="10"/>
<path d="M43.8824 104.301C44.0638 104.577 44.323 104.984 44.6144 105.493C44.9638 106.104 45.1406 106.416 45.2374 106.741C45.4644 107.499 45.2741 108.151 45.1562 108.637C45.0594 109.036 44.9638 109.523 44.8926 110.11" stroke="#2A458A" stroke-width="0.11347" stroke-miterlimit="10"/>
<path d="M20.1716 149.738H190.557" stroke="#1D3B77" stroke-width="0.556227" stroke-miterlimit="10"/>
</g>
<defs>
<filter id="filter0_d_83_867" x="0" y="0" width="210" height="210" filterUnits="userSpaceOnUse" color-interpolation-filters="sRGB">
<feFlood flood-opacity="0" result="BackgroundImageFix"/>
<feColorMatrix in="SourceAlpha" type="matrix" values="0 0 0 0 0 0 0 0 0 0 0 0 0 0 0 0 0 0 127 0" result="hardAlpha"/>
<feOffset/>
<feGaussianBlur stdDeviation="10"/>
<feComposite in2="hardAlpha" operator="out"/>
<feColorMatrix type="matrix" values="0 0 0 0 0 0 0 0 0 0 0 0 0 0 0 0 0 0 0.05 0"/>
<feBlend mode="normal" in2="BackgroundImageFix" result="effect1_dropShadow_83_867"/>
<feBlend mode="normal" in="SourceGraphic" in2="effect1_dropShadow_83_867" result="shape"/>
</filter>
<clipPath id="clip0_83_867">
<rect width="184" height="106.128" fill="white" transform="translate(17 52)"/>
</clipPath>
</defs>
</svg>
