<svg width="285" height="285" viewBox="0 0 285 285" fill="none" xmlns="http://www.w3.org/2000/svg">
<circle cx="142.5" cy="142.5" r="141.5" stroke="url(#paint0_linear_4005_46)" stroke-width="2"/>
<path d="M155.265 76.9624H153.462L153.452 76.9926C136.205 77.366 120.254 83.0624 107.194 92.4831L107.107 92.5457L107.026 92.6156C104.785 94.5439 104.481 97.8711 106.269 100.177L106.271 100.181C108.08 102.507 111.411 103.018 113.823 101.288L113.823 101.288C125.493 92.9121 139.796 87.998 155.261 87.998C174.925 87.998 192.73 95.958 205.612 108.84L205.612 108.84C218.508 121.733 226.468 139.527 226.468 159.19C226.468 178.854 218.508 196.658 205.613 209.54L205.611 209.542C192.733 222.437 174.925 230.397 155.261 230.397C135.599 230.397 117.808 222.437 104.911 209.541C103.401 208.031 101.961 206.453 100.603 204.821L100.53 204.733L100.524 204.727C100.47 204.663 100.423 204.61 100.394 204.577L100.386 204.567C100.346 204.523 100.331 204.505 100.327 204.501L100.243 204.393L100.147 204.293C98.2948 202.389 95.3049 202.058 93.056 203.609L93.0559 203.609L93.0445 203.617C90.5572 205.353 89.9235 208.784 91.6721 211.29L91.7282 211.37L91.7903 211.446C93.4739 213.495 95.2479 215.46 97.1268 217.339C112.003 232.215 132.557 241.425 155.265 241.425C177.973 241.425 198.541 232.215 213.417 217.339L213.418 217.339C228.29 202.463 237.5 181.894 237.5 159.187C237.5 136.479 228.293 115.925 213.417 101.049C198.541 86.1684 177.969 76.9624 155.265 76.9624Z" fill="url(#paint1_linear_4005_46)" stroke="white" stroke-width="5"/>
<path d="M203.481 207.396L203.482 207.395C215.81 195.063 223.457 178.005 223.457 159.179C223.457 140.353 215.813 123.309 203.481 110.977C191.148 98.6295 174.089 91.0015 155.265 91.0015C148.145 91.0015 141.267 92.0925 134.801 94.1295L134.767 94.1404L134.732 94.1523C132.876 94.797 131.493 96.3771 131.123 98.3273C130.735 100.295 131.468 102.315 132.995 103.588C134.368 104.745 136.188 105.121 137.855 104.711L137.855 104.711L137.864 104.709C138.071 104.657 138.321 104.57 138.387 104.547C143.728 102.907 149.396 102.012 155.265 102.012C171.062 102.012 185.343 108.408 195.697 118.762C206.05 129.115 212.432 143.381 212.432 159.179C212.432 174.978 206.049 189.259 195.697 199.611C185.345 209.964 171.064 216.346 155.265 216.346C141.33 216.346 128.557 211.361 118.635 203.08V202.998L117.67 202.248C117.607 202.199 117.546 202.146 117.426 202.041L117.355 201.979L117.279 201.923C115.205 200.367 112.273 200.442 110.276 202.229C108.07 204.203 107.807 207.578 109.706 209.867L109.827 210.013L109.968 210.139C122.007 220.849 137.886 227.371 155.265 227.371C174.09 227.371 191.149 219.728 203.481 207.396Z" fill="url(#paint2_linear_4005_46)" stroke="white" stroke-width="5"/>
<path d="M107.964 190.623H53.2988C50.2621 190.623 47.8005 193.1 47.8005 196.136C47.8005 199.165 50.2698 201.634 53.2988 201.634H107.964C110.993 201.634 113.462 199.165 113.462 196.136C113.462 193.1 111.001 190.623 107.964 190.623Z" fill="url(#paint3_linear_4005_46)" stroke="white" stroke-width="5"/>
<path d="M117.318 168.438H91.7897C88.6482 168.438 86.6893 171.257 86.6893 173.937C86.6893 176.622 88.6412 179.449 91.7897 179.449H117.318C120.466 179.449 122.418 176.622 122.418 173.937C122.418 171.257 120.459 168.438 117.318 168.438Z" fill="url(#paint4_linear_4005_46)" stroke="white" stroke-width="5"/>
<path d="M91.7186 146.25H34.3251C31.3583 146.25 28.5 148.484 28.5 151.748C28.5 155.019 31.3503 157.26 34.3251 157.26H91.7186C94.6934 157.26 97.5437 155.019 97.5437 151.748C97.5437 148.484 94.6854 146.25 91.7186 146.25Z" fill="url(#paint5_linear_4005_46)" stroke="white" stroke-width="5"/>
<path d="M114.874 124.064H59.8389C56.887 124.064 53.957 126.26 53.957 129.562C53.957 132.872 56.879 135.075 59.8389 135.075H114.874C117.827 135.075 120.741 132.866 120.741 129.562C120.741 126.266 117.818 124.064 114.874 124.064Z" fill="url(#paint6_linear_4005_46)" stroke="white" stroke-width="5"/>
<path d="M102.504 101.705H84.326C81.2892 101.705 78.8277 104.182 78.8277 107.218C78.8277 110.247 81.2969 112.716 84.326 112.716H102.504C105.518 112.716 108.016 110.262 108.016 107.218C108.016 104.167 105.525 101.705 102.504 101.705Z" fill="url(#paint7_linear_4005_46)" stroke="white" stroke-width="5"/>
<path d="M82.1234 168.438H73.3524C70.3233 168.438 67.8541 170.907 67.8541 173.937C67.8541 176.972 70.3157 179.449 73.3524 179.449H82.1234C85.1667 179.449 87.6359 176.98 87.6359 173.937C87.6359 170.9 85.159 168.438 82.1234 168.438Z" fill="url(#paint8_linear_4005_46)" stroke="white" stroke-width="5"/>
<path d="M73.1109 101.705H68.5353C65.5139 101.705 63.0228 104.167 63.0228 107.218C63.0228 110.262 65.5216 112.716 68.5353 112.716H73.1109C76.1246 112.716 78.6234 110.262 78.6234 107.218C78.6234 104.167 76.1323 101.705 73.1109 101.705Z" fill="url(#paint9_linear_4005_46)" stroke="white" stroke-width="5"/>
<path d="M106.642 146.25H102.067C99.0533 146.25 96.5544 148.703 96.5544 151.748C96.5544 154.799 99.0455 157.26 102.067 157.26H106.642C109.664 157.26 112.155 154.799 112.155 151.748C112.155 148.703 109.656 146.25 106.642 146.25Z" fill="url(#paint10_linear_4005_46)" stroke="white" stroke-width="5"/>
<path d="M155.265 170.905C161.732 170.905 166.991 165.651 166.991 159.179C166.991 152.708 161.736 147.454 155.265 147.454C148.791 147.454 143.539 152.725 143.539 159.179C143.539 165.637 148.808 170.905 155.265 170.905Z" fill="url(#paint11_linear_4005_46)" stroke="white" stroke-width="5"/>
<mask id="path-13-outside-1_4005_46" maskUnits="userSpaceOnUse" x="162" y="133.498" width="39" height="31" fill="black">
<rect fill="white" x="162" y="133.498" width="39" height="31"/>
<path fill-rule="evenodd" clip-rule="evenodd" d="M193.543 145.211L169.5 156C169.5 155 168.103 153.212 168 153C167.71 152.404 167.5 152 167 151L190.928 139.797C192.406 139.073 194.225 139.712 194.935 141.19C195.66 142.682 195.035 144.486 193.543 145.211Z"/>
</mask>
<path fill-rule="evenodd" clip-rule="evenodd" d="M193.543 145.211L169.5 156C169.5 155 168.103 153.212 168 153C167.71 152.404 167.5 152 167 151L190.928 139.797C192.406 139.073 194.225 139.712 194.935 141.19C195.66 142.682 195.035 144.486 193.543 145.211Z" fill="url(#paint12_linear_4005_46)"/>
<path d="M193.543 145.211L195.59 149.773L195.659 149.742L195.727 149.709L193.543 145.211ZM169.5 156L164.5 156L164.5 163.724L171.547 160.562L169.5 156ZM168 153L163.502 155.184L168 153ZM167 151L164.88 146.472C163.659 147.043 162.72 148.084 162.277 149.358C161.834 150.631 161.925 152.03 162.528 153.236L167 151ZM190.928 139.797L193.048 144.326L193.089 144.306L193.13 144.287L190.928 139.797ZM194.935 141.19L190.429 143.356L190.433 143.365L190.438 143.374L194.935 141.19ZM191.496 140.649L167.453 151.438L171.547 160.562L195.59 149.773L191.496 140.649ZM174.5 156C174.5 154.74 174.101 153.7 173.881 153.181C173.619 152.567 173.31 152.019 173.067 151.616C172.814 151.199 172.569 150.836 172.407 150.599C172.307 150.451 172.279 150.412 172.237 150.35C172.221 150.326 172.232 150.341 172.253 150.375C172.264 150.393 172.29 150.434 172.324 150.49C172.35 150.536 172.419 150.654 172.498 150.816L163.502 155.184C163.587 155.359 163.665 155.494 163.703 155.559C163.748 155.634 163.787 155.698 163.815 155.741C163.868 155.824 163.919 155.9 163.951 155.948C164.005 156.027 164.104 156.171 164.148 156.237C164.277 156.426 164.401 156.612 164.511 156.793C164.564 156.881 164.606 156.956 164.638 157.015C164.671 157.076 164.682 157.103 164.679 157.097C164.679 157.096 164.645 157.017 164.606 156.873C164.571 156.741 164.5 156.432 164.5 156L174.5 156ZM172.498 150.816C172.193 150.189 171.936 149.692 171.472 148.764L162.528 153.236C163.064 154.308 163.228 154.618 163.502 155.184L172.498 150.816ZM169.12 155.528L193.048 144.326L188.808 135.269L164.88 146.472L169.12 155.528ZM193.13 144.287C192.096 144.794 190.913 144.362 190.429 143.356L199.442 139.023C197.537 135.062 192.716 133.351 188.727 135.308L193.13 144.287ZM190.438 143.374C189.955 142.381 190.368 141.195 191.358 140.714L195.727 149.709C199.702 147.778 201.365 142.983 199.433 139.005L190.438 143.374Z" fill="white" mask="url(#path-13-outside-1_4005_46)"/>
<mask id="path-15-outside-2_4005_46" maskUnits="userSpaceOnUse" x="113.676" y="97.1758" width="42" height="60" fill="black">
<rect fill="white" x="113.676" y="97.1758" width="42" height="60"/>
<path fill-rule="evenodd" clip-rule="evenodd" d="M125.27 104.643L150.5 145.5C150 146 148.308 146.818 148 147C146.579 147.838 146.5 148 146 148.5L120.098 107.712C119.245 106.291 119.728 104.444 121.149 103.592C122.57 102.753 124.418 103.222 125.27 104.643Z"/>
</mask>
<path fill-rule="evenodd" clip-rule="evenodd" d="M125.27 104.643L150.5 145.5C150 146 148.308 146.818 148 147C146.579 147.838 146.5 148 146 148.5L120.098 107.712C119.245 106.291 119.728 104.444 121.149 103.592C122.57 102.753 124.418 103.222 125.27 104.643Z" fill="url(#paint13_linear_4005_46)"/>
<path d="M125.27 104.643L120.983 107.216L120.999 107.243L121.016 107.27L125.27 104.643ZM150.5 145.5L154.036 149.036C155.675 147.396 155.972 144.845 154.754 142.873L150.5 145.5ZM148 147L145.459 142.694L148 147ZM146 148.5L141.779 151.18L145.124 156.447L149.536 152.036L146 148.5ZM120.098 107.712L115.81 110.285L115.843 110.339L115.877 110.393L120.098 107.712ZM121.149 103.592L118.609 99.2852L118.593 99.2946L118.577 99.3041L121.149 103.592ZM121.016 107.27L146.246 148.127L154.754 142.873L129.525 102.016L121.016 107.27ZM146.964 141.964C147.136 141.793 147.263 141.7 147.274 141.691C147.3 141.672 147.294 141.678 147.243 141.711C147.139 141.778 146.976 141.874 146.758 141.994C146.548 142.11 146.333 142.224 146.127 142.332C146.032 142.382 145.921 142.44 145.83 142.488C145.761 142.525 145.607 142.606 145.459 142.694L150.541 151.306C150.478 151.344 150.472 151.345 150.774 151.187C150.987 151.075 151.284 150.918 151.598 150.745C151.904 150.575 152.277 150.362 152.64 150.129C152.929 149.944 153.51 149.561 154.036 149.036L146.964 141.964ZM145.459 142.694C144.706 143.138 144.08 143.534 143.533 143.971C142.986 144.409 142.515 144.914 142.464 144.964L149.536 152.036C149.62 151.951 149.695 151.874 149.744 151.825C149.799 151.768 149.82 151.747 149.835 151.732C149.843 151.724 149.814 151.753 149.776 151.783C149.749 151.804 149.873 151.7 150.541 151.306L145.459 142.694ZM150.221 145.82L124.319 105.032L115.877 110.393L141.779 151.18L150.221 145.82ZM124.385 105.14C124.986 106.141 124.614 107.344 123.722 107.879L118.577 99.3041C114.843 101.545 113.505 106.442 115.81 110.285L124.385 105.14ZM123.69 107.898C122.739 108.459 121.54 108.144 120.983 107.216L129.558 102.071C127.296 98.3004 122.402 97.0472 118.609 99.2852L123.69 107.898Z" fill="white" mask="url(#path-15-outside-2_4005_46)"/>
<path d="M200.982 85.6954C201.046 85.7495 201.113 85.8003 201.182 85.8478L203.534 87.4674L204.921 88.5232L206.3 89.573L208.15 91.1501C208.215 91.2059 208.284 91.2582 208.354 91.3069L210.649 92.8872L212.454 94.4256L214.326 96.0224L216.667 98.1485C216.7 98.1782 216.733 98.2069 216.768 98.2348C216.888 98.3333 216.998 98.4362 217.168 98.5972C217.175 98.6041 217.183 98.6112 217.19 98.6186C217.335 98.7562 217.572 98.9805 217.837 99.183C218.533 99.7135 219.47 100.13 220.7 100.012C222.283 99.8716 223.844 99.1208 224.952 97.7867C224.953 97.7858 224.953 97.7848 224.954 97.7839L227.736 94.4467L227.741 94.4417C228.829 93.1298 229.315 91.4847 229.177 89.8818L229.174 89.8455C229.017 88.2841 228.277 86.7252 226.937 85.6124C226.936 85.6113 226.935 85.6103 226.933 85.6093L211.729 72.9122L211.728 72.9114C210.386 71.7919 208.732 71.3335 207.148 71.4694C205.559 71.6057 203.988 72.3572 202.874 73.7148L200.098 77.0323L200.098 77.0323L200.09 77.041C199.002 78.3529 198.516 79.998 198.654 81.601L198.657 81.6314C198.843 83.5277 199.951 84.821 200.982 85.6954Z" fill="url(#paint14_linear_4005_46)" stroke="white" stroke-width="5" stroke-linejoin="round"/>
<path d="M137.538 49.5C135.504 49.502 133.655 50.297 132.283 51.599C132.219 51.6516 132.157 51.7076 132.097 51.7669C130.702 53.1626 129.83 55.0819 129.83 57.215V64.2347C129.83 66.3678 130.702 68.2871 132.097 69.6828L132.097 69.683L132.111 69.697C132.112 69.6971 132.112 69.6971 132.112 69.6972C133.497 71.0822 135.417 71.9497 137.545 71.9497H141.454V72C141.454 72.6857 141.736 73.3414 142.233 73.8134C142.731 74.2854 143.4 74.5324 144.085 74.4966L153.565 74H163C164.216 74 165.245 73.1278 165.459 71.9497H169.621C171.752 71.9497 173.664 71.0803 175.055 69.7102C175.124 69.6431 175.187 69.5724 175.247 69.4986C176.538 68.1206 177.336 66.2754 177.336 64.2347V57.215C177.336 55.0819 176.464 53.1626 175.069 51.7669C173.673 50.3712 171.754 49.5 169.621 49.5H137.545C137.544 49.5 137.543 49.5 137.542 49.5L137.538 49.5Z" fill="url(#paint15_linear_4005_46)" stroke="white" stroke-width="5" stroke-linejoin="round"/>
<defs>
<linearGradient id="paint0_linear_4005_46" x1="238.5" y1="42" x2="43" y2="237.5" gradientUnits="userSpaceOnUse">
<stop stop-color="white" stop-opacity="0"/>
<stop offset="0.199905" stop-color="white"/>
<stop offset="0.813618" stop-color="white"/>
<stop offset="1" stop-color="white" stop-opacity="0"/>
</linearGradient>
<linearGradient id="paint1_linear_4005_46" x1="164.091" y1="59.0879" x2="164.091" y2="260.232" gradientUnits="userSpaceOnUse">
<stop offset="0.0185918" stop-color="white"/>
<stop offset="1" stop-color="white" stop-opacity="0"/>
</linearGradient>
<linearGradient id="paint2_linear_4005_46" x1="165.947" y1="47.5" x2="165.947" y2="242.424" gradientUnits="userSpaceOnUse">
<stop stop-color="white"/>
<stop offset="0.811482" stop-color="white" stop-opacity="0"/>
</linearGradient>
<linearGradient id="paint3_linear_4005_46" x1="80.6314" y1="192.355" x2="80.6314" y2="199.937" gradientUnits="userSpaceOnUse">
<stop offset="0.0185918" stop-color="white"/>
<stop offset="1" stop-color="white" stop-opacity="0"/>
</linearGradient>
<linearGradient id="paint4_linear_4005_46" x1="104.554" y1="170.17" x2="104.554" y2="177.752" gradientUnits="userSpaceOnUse">
<stop offset="0.0185918" stop-color="white"/>
<stop offset="1" stop-color="white" stop-opacity="0"/>
</linearGradient>
<linearGradient id="paint5_linear_4005_46" x1="63.0219" y1="147.982" x2="63.0219" y2="155.563" gradientUnits="userSpaceOnUse">
<stop offset="0.0185918" stop-color="white"/>
<stop offset="1" stop-color="white" stop-opacity="0"/>
</linearGradient>
<linearGradient id="paint6_linear_4005_46" x1="87.3492" y1="125.796" x2="87.3492" y2="133.378" gradientUnits="userSpaceOnUse">
<stop offset="0.0185918" stop-color="white"/>
<stop offset="1" stop-color="white" stop-opacity="0"/>
</linearGradient>
<linearGradient id="paint7_linear_4005_46" x1="93.422" y1="103.437" x2="93.422" y2="111.019" gradientUnits="userSpaceOnUse">
<stop offset="0.0185918" stop-color="white"/>
<stop offset="1" stop-color="white" stop-opacity="0"/>
</linearGradient>
<linearGradient id="paint8_linear_4005_46" x1="77.745" y1="170.17" x2="77.745" y2="177.752" gradientUnits="userSpaceOnUse">
<stop offset="0.0185918" stop-color="white"/>
<stop offset="1" stop-color="white" stop-opacity="0"/>
</linearGradient>
<linearGradient id="paint9_linear_4005_46" x1="70.8231" y1="103.437" x2="70.8231" y2="111.019" gradientUnits="userSpaceOnUse">
<stop offset="0.0185918" stop-color="white"/>
<stop offset="1" stop-color="white" stop-opacity="0"/>
</linearGradient>
<linearGradient id="paint10_linear_4005_46" x1="104.355" y1="147.982" x2="104.355" y2="155.563" gradientUnits="userSpaceOnUse">
<stop offset="0.0185918" stop-color="white"/>
<stop offset="1" stop-color="white" stop-opacity="0"/>
</linearGradient>
<linearGradient id="paint11_linear_4005_46" x1="155.265" y1="147.596" x2="155.265" y2="170.87" gradientUnits="userSpaceOnUse">
<stop offset="0.0185918" stop-color="white"/>
<stop offset="1" stop-color="white" stop-opacity="0"/>
</linearGradient>
<linearGradient id="paint12_linear_4005_46" x1="175.109" y1="136.606" x2="175.109" y2="165.152" gradientUnits="userSpaceOnUse">
<stop offset="0.0185918" stop-color="white"/>
<stop offset="1" stop-color="white" stop-opacity="0"/>
</linearGradient>
<linearGradient id="paint13_linear_4005_46" x1="138.178" y1="96.3857" x2="138.178" y2="168.356" gradientUnits="userSpaceOnUse">
<stop offset="0.0185918" stop-color="white"/>
<stop offset="1" stop-color="white" stop-opacity="0"/>
</linearGradient>
<linearGradient id="paint14_linear_4005_46" x1="214.315" y1="74.3535" x2="213.335" y2="89.9991" gradientUnits="userSpaceOnUse">
<stop stop-color="white"/>
<stop offset="1" stop-color="white" stop-opacity="0"/>
</linearGradient>
<linearGradient id="paint15_linear_4005_46" x1="153.583" y1="52" x2="153.583" y2="68.7824" gradientUnits="userSpaceOnUse">
<stop stop-color="white"/>
<stop offset="1" stop-color="white" stop-opacity="0"/>
</linearGradient>
</defs>
</svg>
