<svg>

    <symbol id="money" viewBox="0 0 80 79" fill="none" xmlns="http://www.w3.org/2000/svg">
        <path d="M79 39.5C79 60.7511 61.551 78 40 78C18.449 78 1 60.7511 1 39.5C1 18.2489 18.449 1 40 1C61.551 1 79 18.2489 79 39.5Z" stroke="#FF5C24" stroke-width="2"/>
        <g>
            <path fill-rule="evenodd" clip-rule="evenodd" d="M15.6832 26.8624H11.1366C10.5077 26.8624 10 27.3728 10 28.0051V58.4758C10 59.1081 10.5077 59.6185 11.1366 59.6185H64.1801C64.8091 59.6185 65.3168 59.1081 65.3168 58.4758V53.9052H69.8634C70.4923 53.9052 71 53.3948 71 52.7626V22.2918C71 21.6596 70.4923 21.1492 69.8634 21.1492H16.8199C16.1909 21.1492 15.6832 21.6596 15.6832 22.2918V26.8624ZM12.2733 29.1477H63.0435V57.3332H12.2733V29.1477ZM56.6138 31.9091C56.6404 31.5892 56.5305 31.2769 56.3183 31.0407C56.1024 30.8046 55.7993 30.6713 55.481 30.6713H19.8358C19.5175 30.6713 19.2144 30.8046 18.9984 31.0407C18.7825 31.2769 18.6764 31.5892 18.7029 31.9091C18.7105 32.0044 18.7143 32.0996 18.7143 32.1948C18.7143 34.0878 17.1874 35.6228 15.3043 35.6228C15.2096 35.6228 15.1149 35.619 15.0202 35.6113C14.7019 35.5847 14.3912 35.6913 14.1563 35.9084C13.9214 36.1255 13.7888 36.4302 13.7888 36.7502V49.7307C13.7888 50.0507 13.9214 50.3554 14.1563 50.5725C14.3912 50.7896 14.7019 50.8962 15.0202 50.8696C15.1149 50.8619 15.2096 50.8581 15.3043 50.8581C17.1874 50.8581 18.7143 52.3931 18.7143 54.2861C18.7143 54.3813 18.7105 54.4765 18.7029 54.5718C18.6764 54.8917 18.7863 55.204 18.9984 55.4402C19.2144 55.6763 19.5175 55.8096 19.8358 55.8096H55.481C55.7993 55.8096 56.1024 55.6763 56.3183 55.4402C56.5343 55.204 56.6404 54.8917 56.6138 54.5718C56.6063 54.4765 56.6025 54.3813 56.6025 54.2861C56.6025 52.3931 58.1294 50.8581 60.0124 50.8581C60.1071 50.8581 60.2019 50.8619 60.2966 50.8696C60.6148 50.8962 60.9255 50.7896 61.1604 50.5725C61.3953 50.3554 61.528 50.0507 61.528 49.7307V36.7502C61.528 36.4302 61.3953 36.1255 61.1604 35.9084C60.9255 35.6913 60.6148 35.5847 60.2966 35.6113C60.2019 35.619 60.1071 35.6228 60.0124 35.6228C58.1294 35.6228 56.6025 34.0878 56.6025 32.1948C56.6025 32.0996 56.6063 32.0044 56.6138 31.9091ZM54.3784 32.9566C54.7157 35.5009 56.7237 37.5196 59.2547 37.8586V48.6262C56.7237 48.9651 54.7157 50.9838 54.3784 53.5281H20.9383C20.6011 50.9838 18.593 48.9651 16.0621 48.6262V37.8586C18.593 37.5196 20.6011 35.5009 20.9383 32.9566H54.3822H54.3784ZM65.3168 51.6199H68.7267V23.4345H17.9565V26.8624H64.1801C64.8091 26.8624 65.3168 27.3728 65.3168 28.0051V51.6199ZM37.6584 37.5272C34.5212 37.5272 31.9752 40.0867 31.9752 43.2405C31.9752 46.3942 34.5212 48.9537 37.6584 48.9537C40.7955 48.9537 43.3416 46.3942 43.3416 43.2405C43.3416 40.0867 40.7955 37.5272 37.6584 37.5272ZM37.6584 39.8125C39.5414 39.8125 41.0683 41.3475 41.0683 43.2405C41.0683 45.1334 39.5414 46.6684 37.6584 46.6684C35.7753 46.6684 34.2484 45.1334 34.2484 43.2405C34.2484 41.3475 35.7753 39.8125 37.6584 39.8125Z" fill="#FF5C24"/>
        </g>
    </symbol>

    <symbol id="building" viewBox="0 0 80 79" fill="none" xmlns="http://www.w3.org/2000/svg">
        <path d="M79 39.5C79 60.7511 61.551 78 40 78C18.449 78 1 60.7511 1 39.5C1 18.2489 18.449 1 40 1C61.551 1 79 18.2489 79 39.5Z" stroke="#FF5C24" stroke-width="2"/>
        <g>
            <path fill-rule="evenodd" clip-rule="evenodd" d="M64.6867 62.6824V17.085C64.6867 16.5325 64.2428 16.0865 63.6928 16.0865H30.5602C30.0102 16.0865 29.5663 16.5325 29.5663 17.085V36.0562H17.3072C16.7572 36.0562 16.3133 36.5022 16.3133 37.0547V62.6824H13.994C13.444 62.6824 13 63.1284 13 63.6809C13 64.2334 13.444 64.6794 13.994 64.6794H67.006C67.556 64.6794 68 64.2334 68 63.6809C68 63.1284 67.556 62.6824 67.006 62.6824H64.6867ZM62.6988 62.6824H31.5542V18.0835H62.6988V62.6824ZM29.5663 38.0532V62.6824H18.3012V38.0532H29.5663ZM45.1386 37.3875C45.1386 36.835 44.6946 36.389 44.1446 36.389H37.5181C36.9681 36.389 36.5241 36.835 36.5241 37.3875V44.0441C36.5241 44.5965 36.9681 45.0425 37.5181 45.0425H44.1446C44.6946 45.0425 45.1386 44.5965 45.1386 44.0441V37.3875ZM57.7289 37.3875C57.7289 36.835 57.2849 36.389 56.7349 36.389H50.1084C49.5584 36.389 49.1145 36.835 49.1145 37.3875V44.0441C49.1145 44.5965 49.5584 45.0425 50.1084 45.0425H56.7349C57.2849 45.0425 57.7289 44.5965 57.7289 44.0441V37.3875ZM43.1506 38.386V43.0456H38.512V38.386H43.1506ZM55.741 38.386V43.0456H51.1024V38.386H55.741ZM45.1386 24.7401C45.1386 24.1876 44.6946 23.7416 44.1446 23.7416H37.5181C36.9681 23.7416 36.5241 24.1876 36.5241 24.7401V31.3966C36.5241 31.9491 36.9681 32.3951 37.5181 32.3951H44.1446C44.6946 32.3951 45.1386 31.9491 45.1386 31.3966V24.7401ZM57.7289 24.7401C57.7289 24.1876 57.2849 23.7416 56.7349 23.7416H50.1084C49.5584 23.7416 49.1145 24.1876 49.1145 24.7401V31.3966C49.1145 31.9491 49.5584 32.3951 50.1084 32.3951H56.7349C57.2849 32.3951 57.7289 31.9491 57.7289 31.3966V24.7401ZM43.1506 25.7385V30.3981H38.512V25.7385H43.1506ZM55.741 25.7385V30.3981H51.1024V25.7385H55.741Z" fill="#FF5C24"/>
        </g>
    </symbol>

</svg>
